<svg width="59" height="60" viewBox="0 0 59 60" fill="none" xmlns="http://www.w3.org/2000/svg">
<g clip-path="url(#clip0_0:30)">
<path fill-rule="evenodd" clip-rule="evenodd" d="M30.0412 0.00203387L30.228 0.00508475L30.6016 0.0152542L30.9732 0.0294916L31.159 0.0386441L31.5286 0.061017L31.7134 0.0732204L31.8982 0.0874577L32.0821 0.102712L32.2659 0.118983L32.4487 0.136271L32.6316 0.154576L32.9963 0.195254L33.1782 0.217627L33.36 0.241017L33.5419 0.265424L33.7228 0.290848L33.9027 0.317288L34.2625 0.374238L34.4424 0.404746L34.6213 0.436272L34.8002 0.468814L34.9781 0.502373L35.1561 0.53695L35.334 0.572543L35.5109 0.609153L35.6879 0.647797L35.8639 0.686441L36.2158 0.767797L36.3908 0.810509L36.5658 0.854238L36.7398 0.898984L36.9138 0.944747L37.0878 0.991526L37.2608 1.03932L37.4338 1.08814L37.6058 1.13797L37.7779 1.18881L38.12 1.29458L38.29 1.34848L38.6302 1.46034L38.7993 1.51831L38.9674 1.57627L39.3036 1.69627L39.6378 1.82034L39.9701 1.94848L40.3004 2.08068L40.6287 2.21695L40.9551 2.35729L41.1173 2.42949L41.2785 2.5017L41.4407 2.57593L41.601 2.65017L41.7612 2.72543L41.9214 2.80271L42.0807 2.88L42.239 2.95831L42.3972 3.03763L42.5555 3.11797L42.7118 3.19933L42.8691 3.2817L43.0244 3.36509L43.1807 3.4495L43.3351 3.53492L43.6437 3.7078L43.7971 3.79627L43.9495 3.88475L44.1018 3.97424L44.2532 4.06577L44.4036 4.15729L44.554 4.24983L44.7045 4.34339L44.8529 4.43797L45.0023 4.53255L45.1498 4.62916L45.2972 4.72678L45.4437 4.82441L45.5902 4.92306L45.7357 5.02272L45.8812 5.12339L46.0247 5.22509L46.1692 5.3278L46.3117 5.43051L46.4543 5.53526L46.5958 5.64001L46.7374 5.74577L46.878 5.85255L47.1572 6.06814L47.2958 6.17797L47.4334 6.2878L47.571 6.39865L47.7077 6.51051L47.979 6.73628L48.1137 6.85018L48.2474 6.96611L48.5128 7.19797L48.7762 7.43391L48.907 7.55289L49.0368 7.67289L49.2943 7.91492L49.5489 8.16001L49.6748 8.28408L49.8006 8.40916L49.9254 8.53425L50.0493 8.66035L50.1732 8.78747L50.2951 8.91458L50.417 9.04272L50.5379 9.17187L50.6588 9.30204L50.7787 9.43221L51.0156 9.6956L51.2496 9.96204L51.3656 10.0963L51.4806 10.2315L51.7087 10.5041L51.9328 10.7787L52.0449 10.917L52.155 11.0563L52.3732 11.337L52.4814 11.4783L52.5885 11.6207L52.6947 11.7631L52.8009 11.9065L53.0093 12.1953L53.1125 12.3407L53.2147 12.4871L53.316 12.6336L53.4172 12.781L53.5165 12.9285L53.6158 13.078L53.7141 13.2265L53.8114 13.377L53.9078 13.5275L54.0031 13.679L54.0975 13.8305L54.1919 13.9831L54.2853 14.1356L54.3767 14.2902L54.4681 14.4437L54.5586 14.5993L54.648 14.7549L54.7365 14.9105L54.825 15.0671L54.9115 15.2248L54.997 15.3824L55.0825 15.541L55.2496 15.8604L55.3322 16.02L55.4138 16.1817L55.4944 16.3424L55.5741 16.5051L55.6527 16.6668L55.7304 16.8305L55.807 16.9943L55.8827 17.158L55.9574 17.3227L56.0322 17.4885L56.1049 17.6543L56.1767 17.82L56.2484 17.9878L56.3182 18.1546L56.388 18.3224L56.5237 18.66L56.6554 18.9997L56.7832 19.3414L56.9071 19.6851L57.027 20.0309L57.143 20.3787L57.199 20.5526L57.2551 20.7275L57.3632 21.0793L57.4153 21.2553L57.5175 21.6092L57.5667 21.7871L57.6149 21.9651L57.6621 22.1441L57.7083 22.3231L57.7535 22.5031L57.7977 22.6831L57.841 22.8631L57.8832 23.0441L57.9245 23.2251L58.0032 23.5892L58.0405 23.7712L58.0779 23.9543L58.1133 24.1373L58.1477 24.3214L58.1811 24.5054L58.2135 24.6895L58.245 24.8746L58.2755 25.0597L58.305 25.2458L58.36 25.618L58.3856 25.8041L58.4102 25.9912L58.4338 26.1793L58.4564 26.3675L58.478 26.5556L58.5173 26.9329L58.535 27.1221L58.5517 27.3112L58.5674 27.5014L58.5822 27.6916L58.596 27.8827L58.6078 28.0739L58.6294 28.4563L58.6382 28.6485L58.652 29.0329L58.6618 29.4194L58.6648 29.6126L58.6667 30L58.6648 30.3875L58.6618 30.5807L58.652 30.9671L58.6382 31.3516L58.6294 31.5438L58.6078 31.9261L58.596 32.1173L58.5822 32.3085L58.5674 32.4987L58.5517 32.6888L58.535 32.878L58.5173 33.0672L58.478 33.4444L58.4564 33.6326L58.4338 33.8207L58.4102 34.0088L58.3856 34.196L58.36 34.3821L58.305 34.7543L58.2755 34.9404L58.245 35.1255L58.2135 35.3105L58.1811 35.4946L58.1477 35.6787L58.1133 35.8627L58.0779 36.0458L58.0405 36.2288L58.0032 36.4109L57.9245 36.7749L57.8832 36.956L57.841 37.137L57.7977 37.317L57.7535 37.497L57.7083 37.677L57.6621 37.856L57.6149 38.035L57.5667 38.2129L57.5175 38.3909L57.4153 38.7448L57.3632 38.9207L57.2551 39.2726L57.199 39.4475L57.143 39.6214L57.027 39.9692L56.9071 40.315L56.7832 40.6587L56.6554 41.0004L56.5237 41.34L56.388 41.6777L56.3182 41.8455L56.2484 42.0122L56.1767 42.18L56.1049 42.3458L56.0322 42.5116L55.9574 42.6773L55.8827 42.8421L55.807 43.0058L55.7304 43.1695L55.6527 43.3333L55.5741 43.495L55.4944 43.6577L55.4138 43.8183L55.3322 43.98L55.2496 44.1397L55.0825 44.459L54.997 44.6177L54.9115 44.7753L54.825 44.9329L54.7365 45.0895L54.648 45.2451L54.5586 45.4007L54.4681 45.5563L54.3767 45.7099L54.2853 45.8644L54.1919 46.017L54.0975 46.1695L54.0031 46.3211L53.9078 46.4726L53.8114 46.6231L53.7141 46.7736L53.6158 46.9221L53.5165 47.0716L53.4172 47.219L53.316 47.3665L53.2147 47.5129L53.1125 47.6594L53.0093 47.8048L52.8009 48.0936L52.6947 48.237L52.5885 48.3794L52.4814 48.5217L52.3732 48.6631L52.155 48.9438L52.0449 49.0831L51.9328 49.2214L51.7087 49.496L51.4806 49.7685L51.3656 49.9038L51.2496 50.038L51.0156 50.3045L50.7787 50.5678L50.6588 50.698L50.5379 50.8282L50.417 50.9573L50.1732 51.2136L49.9254 51.4658L49.8006 51.5909L49.6748 51.716L49.5489 51.8401L49.2943 52.0851L49.0368 52.3272L48.907 52.4472L48.7762 52.5662L48.5128 52.8021L48.2474 53.034L48.1137 53.1499L47.979 53.2638L47.7077 53.4895L47.571 53.6014L47.4334 53.7123L47.2958 53.8221L47.1572 53.9319L46.878 54.1475L46.7374 54.2543L46.5958 54.3601L46.4543 54.4648L46.3117 54.5695L46.1692 54.6723L46.0247 54.775L45.8812 54.8767L45.7357 54.9773L45.5902 55.077L45.4437 55.1756L45.2972 55.2733L45.1498 55.3709L45.0023 55.4675L44.8529 55.5621L44.7045 55.6567L44.554 55.7502L44.4036 55.8428L44.2532 55.9343L44.1018 56.0258L43.9495 56.1153L43.7971 56.2038L43.6437 56.2923L43.3351 56.4651L43.1807 56.5506L43.0244 56.635L42.8691 56.7184L42.7118 56.8007L42.5555 56.8821L42.3972 56.9624L42.239 57.0418L42.0807 57.1201L41.9214 57.1973L41.7612 57.2746L41.601 57.3499L41.4407 57.4241L41.2785 57.4984L41.1173 57.5706L40.9551 57.6428L40.6287 57.7831L40.3004 57.9194L39.9701 58.0516L39.6378 58.1797L39.3036 58.3038L38.9674 58.4238L38.7993 58.4818L38.6302 58.5397L38.29 58.6516L38.12 58.7055L37.7779 58.8112L37.6058 58.8621L37.4338 58.9119L37.2608 58.9607L37.0878 59.0085L36.9138 59.0553L36.7398 59.1011L36.5658 59.1458L36.3908 59.1895L36.2158 59.2323L35.8639 59.3136L35.6879 59.3523L35.5109 59.3909L35.334 59.4275L35.1561 59.4631L34.9781 59.4977L34.8002 59.5312L34.6213 59.5638L34.4424 59.5953L34.2625 59.6258L33.9027 59.6828L33.7228 59.7092L33.5419 59.7346L33.36 59.759L33.1782 59.7824L32.9963 59.8048L32.6316 59.8455L32.4487 59.8638L32.2659 59.8811L32.0821 59.8973L31.8982 59.9126L31.7134 59.9268L31.5286 59.939L31.159 59.9614L30.9732 59.9706L30.6016 59.9848L30.228 59.995L30.0412 59.998L29.6667 60.0001L29.2922 59.998L29.1054 59.995L28.7318 59.9848L28.3602 59.9706L28.1744 59.9614L27.8048 59.939L27.62 59.9268L27.4352 59.9126L27.2513 59.8973L27.0675 59.8811L26.8847 59.8638L26.7018 59.8455L26.3371 59.8048L26.1552 59.7824L25.9734 59.759L25.7915 59.7346L25.6106 59.7092L25.4307 59.6828L25.0709 59.6258L24.891 59.5953L24.7121 59.5638L24.5332 59.5312L24.3553 59.4977L24.1773 59.4631L23.9994 59.4275L23.8225 59.3909L23.6455 59.3523L23.4695 59.3136L23.1176 59.2323L22.9426 59.1895L22.7676 59.1458L22.5936 59.1011L22.4196 59.0553L22.2456 59.0085L22.0726 58.9607L21.8996 58.9119L21.7276 58.8621L21.5555 58.8112L21.2134 58.7055L21.0434 58.6516L20.7032 58.5397L20.5342 58.4818L20.366 58.4238L20.0298 58.3038L19.6956 58.1797L19.3633 58.0516L19.033 57.9194L18.7047 57.7831L18.3783 57.6428L18.2161 57.5706L18.0549 57.4984L17.8927 57.4241L17.7325 57.3499L17.5722 57.2746L17.412 57.1973L17.2527 57.1201L17.0945 57.0418L16.9362 56.9624L16.7779 56.8821L16.6216 56.8007L16.4643 56.7184L16.309 56.635L16.1527 56.5506L15.9984 56.4651L15.6897 56.2923L15.5363 56.2038L15.3839 56.1153L15.2316 56.0258L15.0802 55.9343L14.9298 55.8428L14.7794 55.7502L14.629 55.6567L14.4805 55.5621L14.3311 55.4675L14.1836 55.3709L14.0362 55.2733L13.8897 55.1756L13.7432 55.077L13.5977 54.9773L13.4522 54.8767L13.3087 54.775L13.1642 54.6723L13.0217 54.5695L12.8791 54.4648L12.7376 54.3601L12.596 54.2543L12.4554 54.1475L12.1762 53.9319L12.0376 53.8221L11.9 53.7123L11.7624 53.6014L11.6257 53.4895L11.3544 53.2638L11.2197 53.1499L11.086 53.034L10.8206 52.8021L10.5572 52.5662L10.4264 52.4472L10.2966 52.3272L10.0391 52.0851L9.78448 51.8401L9.65865 51.716L9.53282 51.5909L9.40797 51.4658L9.2841 51.3397L9.16122 51.2136L9.03834 51.0855L8.91644 50.9573L8.79553 50.8282L8.67461 50.698L8.55468 50.5678L8.31776 50.3045L8.0838 50.038L7.9678 49.9038L7.85278 49.7685L7.62471 49.496L7.40058 49.2214L7.28851 49.0831L7.17841 48.9438L6.96017 48.6631L6.85203 48.5217L6.74488 48.3794L6.63871 48.237L6.53254 48.0936L6.32414 47.8048L6.22091 47.6594L6.11868 47.5129L6.01742 47.3665L5.91617 47.219L5.81688 47.0716L5.71759 46.9221L5.61929 46.7736L5.52196 46.6231L5.42563 46.4726L5.33027 46.3211L5.2359 46.1695L5.14152 46.017L5.04813 45.8644L4.95671 45.7099L4.86529 45.5563L4.77485 45.4007L4.68539 45.2451L4.59691 45.0895L4.50844 44.9329L4.42193 44.7753L4.3364 44.6177L4.25088 44.459L4.08376 44.1397L4.00118 43.98L3.91959 43.8183L3.83898 43.6577L3.75935 43.495L3.68071 43.3333L3.60305 43.1695L3.52637 43.0058L3.45067 42.8421L3.37596 42.6773L3.30125 42.5116L3.22851 42.3458L3.15674 42.18L3.08498 42.0122L3.01518 41.8455L2.94539 41.6777L2.80972 41.34L2.678 41.0004L2.5502 40.6587L2.42633 40.315L2.3064 39.9692L2.1904 39.6214L2.13437 39.4475L2.07833 39.2726L1.9702 38.9207L1.9181 38.7448L1.81586 38.3909L1.76671 38.2129L1.71854 38.035L1.67135 37.856L1.62515 37.677L1.57993 37.497L1.53569 37.317L1.49244 37.137L1.45016 36.956L1.40888 36.7749L1.33023 36.4109L1.29288 36.2288L1.25552 36.0458L1.22013 35.8627L1.18572 35.6787L1.1523 35.4946L1.11986 35.3105L1.0884 35.1255L1.05793 34.9404L1.02843 34.7543L0.973384 34.3821L0.947825 34.196L0.923248 34.0088L0.899655 33.8207L0.877045 33.6326L0.855418 33.4444L0.816096 33.0672L0.798401 32.878L0.781689 32.6888L0.76596 32.4987L0.751214 32.3085L0.737452 32.1173L0.725655 31.9261L0.704028 31.5438L0.69518 31.3516L0.681418 30.9671L0.671587 30.5807L0.668638 30.3875L0.666672 30L0.668638 29.6126L0.671587 29.4194L0.681418 29.0329L0.69518 28.6485L0.704028 28.4563L0.725655 28.0739L0.737452 27.8827L0.751214 27.6916L0.76596 27.5014L0.781689 27.3112L0.798401 27.1221L0.816096 26.9329L0.855418 26.5556L0.877045 26.3675L0.899655 26.1793L0.923248 25.9912L0.947825 25.8041L0.973384 25.618L1.02843 25.2458L1.05793 25.0597L1.0884 24.8746L1.11986 24.6895L1.1523 24.5054L1.18572 24.3214L1.22013 24.1373L1.25552 23.9543L1.29288 23.7712L1.33023 23.5892L1.40888 23.2251L1.45016 23.0441L1.49244 22.8631L1.53569 22.6831L1.57993 22.5031L1.62515 22.3231L1.67135 22.1441L1.71854 21.9651L1.76671 21.7871L1.81586 21.6092L1.9181 21.2553L1.9702 21.0793L2.07833 20.7275L2.13437 20.5526L2.1904 20.3787L2.3064 20.0309L2.42633 19.6851L2.5502 19.3414L2.678 18.9997L2.80972 18.66L2.94539 18.3224L3.01518 18.1546L3.08498 17.9878L3.15674 17.82L3.22851 17.6543L3.30125 17.4885L3.37596 17.3227L3.45067 17.158L3.52637 16.9943L3.60305 16.8305L3.68071 16.6668L3.75935 16.5051L3.83898 16.3424L3.91959 16.1817L4.00118 16.02L4.08376 15.8604L4.25088 15.541L4.3364 15.3824L4.42193 15.2248L4.50844 15.0671L4.59691 14.9105L4.68539 14.7549L4.77485 14.5993L4.86529 14.4437L4.95671 14.2902L5.04813 14.1356L5.14152 13.9831L5.2359 13.8305L5.33027 13.679L5.42563 13.5275L5.52196 13.377L5.61929 13.2265L5.71759 13.078L5.81688 12.9285L5.91617 12.781L6.01742 12.6336L6.11868 12.4871L6.22091 12.3407L6.32414 12.1953L6.53254 11.9065L6.63871 11.7631L6.74488 11.6207L6.85203 11.4783L6.96017 11.337L7.17841 11.0563L7.28851 10.917L7.40058 10.7787L7.62471 10.5041L7.85278 10.2315L7.9678 10.0963L8.0838 9.96204L8.31776 9.6956L8.55468 9.43221L8.67461 9.30204L8.79553 9.17187L8.91644 9.04272L9.03834 8.91458L9.2841 8.66035L9.40797 8.53425L9.53282 8.40916L9.65865 8.28408L9.78448 8.16001L10.0391 7.91492L10.2966 7.67289L10.4264 7.55289L10.5572 7.43391L10.8206 7.19797L11.086 6.96611L11.2197 6.85018L11.3544 6.73628L11.6257 6.51051L11.7624 6.39865L11.9 6.2878L12.0376 6.17797L12.1762 6.06814L12.4554 5.85255L12.596 5.74577L12.7376 5.64001L12.8791 5.53526L13.0217 5.43051L13.1642 5.3278L13.3087 5.22509L13.4522 5.12339L13.5977 5.02272L13.7432 4.92306L13.8897 4.82441L14.0362 4.72678L14.1836 4.62916L14.3311 4.53255L14.4805 4.43797L14.629 4.34339L14.7794 4.24983L14.9298 4.15729L15.0802 4.06577L15.2316 3.97424L15.3839 3.88475L15.5363 3.79627L15.6897 3.7078L15.9984 3.53492L16.1527 3.4495L16.309 3.36509L16.4643 3.2817L16.6216 3.19933L16.7779 3.11797L16.9362 3.03763L17.0945 2.95831L17.2527 2.88L17.412 2.80271L17.5722 2.72543L17.7325 2.65017L17.8927 2.57593L18.0549 2.5017L18.2161 2.42949L18.3783 2.35729L18.7047 2.21695L19.033 2.08068L19.3633 1.94848L19.6956 1.82034L20.0298 1.69627L20.366 1.57627L20.5342 1.51831L20.7032 1.46034L21.0434 1.34848L21.2134 1.29458L21.5555 1.18881L21.7276 1.13797L21.8996 1.08814L22.0726 1.03932L22.2456 0.991526L22.4196 0.944747L22.5936 0.898984L22.7676 0.854238L22.9426 0.810509L23.1176 0.767797L23.4695 0.686441L23.6455 0.647797L23.8225 0.609153L23.9994 0.572543L24.1773 0.53695L24.3553 0.502373L24.5332 0.468814L24.7121 0.436272L24.891 0.404746L25.0709 0.374238L25.4307 0.317288L25.6106 0.290848L25.7915 0.265424L25.9734 0.241017L26.1552 0.217627L26.3371 0.195254L26.7018 0.154576L26.8847 0.136271L27.0675 0.118983L27.2513 0.102712L27.4352 0.0874577L27.62 0.0732204L27.8048 0.061017L28.1744 0.0386441L28.3602 0.0294916L28.7318 0.0152542L29.1054 0.00508475L29.2922 0.00203387L29.6667 0L30.0412 0.00203387ZM29.3167 2.03593L29.1427 2.03899L28.9678 2.04305L28.7938 2.04814L28.6207 2.05424L28.4467 2.06136L28.1007 2.07966L27.9287 2.09085L27.5846 2.11526L27.4135 2.12949L27.2415 2.14475L27.0705 2.16102L26.9004 2.17831L26.7303 2.19661L26.5603 2.21593L26.2211 2.25865L26.052 2.28102L25.7148 2.32983L25.5477 2.35627L25.2125 2.41119L25.0454 2.44068L24.7131 2.5017L24.547 2.53424L24.3818 2.5678L24.2167 2.60238L24.0515 2.63797L23.8873 2.67356L23.7232 2.71119L23.56 2.74983L23.3968 2.78949L23.2336 2.83017L23.0714 2.87187L22.9092 2.91458L22.748 2.95831L22.5858 3.00204L22.4255 3.0478L22.2653 3.09458L22.1051 3.14238L21.9448 3.19119L21.7856 3.24L21.6273 3.29085L21.3108 3.39458L21.1535 3.44848L20.8389 3.55831L20.6826 3.61424L20.3719 3.73017L20.2166 3.78916L19.9079 3.91119L19.7546 3.97322L19.6012 4.03627L19.4489 4.10034L19.2965 4.16543L19.1451 4.23051L18.9937 4.29763L18.8423 4.36577L18.6919 4.4339L18.5425 4.50306L18.2436 4.64543L18.0952 4.71763L17.9477 4.79085L17.6528 4.93933L17.5063 5.0156L17.3609 5.09187L17.2154 5.17017L17.0709 5.24848L16.9264 5.3278L16.7818 5.40814L16.6393 5.4895L16.4958 5.57085L16.3542 5.65424L16.2117 5.73763L16.0711 5.82204L15.9305 5.90848L15.7899 5.9939L15.6503 6.08136L15.5108 6.16984L15.3731 6.25831L15.2345 6.3478L15.0969 6.43831L14.9602 6.52984L14.6889 6.71492L14.5533 6.80848L14.4186 6.90407L14.2849 6.99865L14.1512 7.09526L14.0185 7.19289L13.8868 7.29052L13.755 7.38916L13.6233 7.48882L13.4935 7.58848L13.234 7.79187L13.1052 7.89458L12.8496 8.10204L12.7228 8.20679L12.597 8.31255L12.4712 8.41933L12.3463 8.52713L12.2224 8.63492L12.0986 8.74374L11.9757 8.85255L11.7319 9.07425L11.611 9.18611L11.4901 9.29899L11.3701 9.41187L11.2512 9.52577L11.1332 9.64069L11.0153 9.75662L10.8983 9.87255L10.7813 9.9895L10.6663 10.1065L10.4362 10.3444L10.3232 10.4634L10.2101 10.5844L10.0981 10.7054L9.986 10.8275L9.87492 10.9495L9.76482 11.0726L9.6557 11.1966L9.54658 11.3217L9.43844 11.4468L9.22414 11.699L9.11895 11.8261L9.01377 11.9542L8.90956 12.0824L8.80536 12.2115L8.70214 12.3417L8.5999 12.4719L8.49865 12.6031L8.2981 12.8675L8.19881 13.0007L8.0022 13.2692L7.90587 13.4034L7.80953 13.5397L7.71417 13.6759L7.6198 13.8122L7.52542 13.9495L7.43203 14.0878L7.34061 14.2261L7.2482 14.3654L7.15776 14.5058L6.97885 14.7865L6.89037 14.9278L6.80288 15.0702L6.71637 15.2136L6.63085 15.3559L6.54532 15.5004L6.46078 15.6448L6.3782 15.7902L6.29464 15.9356L6.21305 16.081L6.13244 16.2285L6.05183 16.3749L5.97319 16.5234L5.89454 16.6709L5.81688 16.8204L5.7402 16.9698L5.66451 17.1193L5.58881 17.2698L5.51508 17.4204L5.44135 17.5719L5.29783 17.877L5.22705 18.0295L5.15725 18.1831L5.01963 18.4922L4.95278 18.6468L4.88691 18.8024L4.82105 18.959L4.75617 19.1156L4.69325 19.2722L4.63034 19.4298L4.5684 19.5875L4.50746 19.7461L4.44749 19.9048L4.32952 20.2241L4.27251 20.3848L4.16044 20.7061L4.10637 20.8678L4.0002 21.1932L3.9481 21.356L3.84783 21.6834L3.79867 21.8471L3.75149 22.0119L3.7043 22.1776L3.6581 22.3434L3.61288 22.5092L3.56864 22.6749L3.52637 22.8427L3.4841 23.0095L3.44281 23.1773L3.40251 23.3451L3.36318 23.5139L3.32484 23.6827L3.28749 23.8515L3.25112 24.0214L3.21671 24.1912L3.1823 24.3621L3.14888 24.5329L3.11644 24.7038L3.08498 24.8756L3.026 25.2193L2.99749 25.3922L2.9444 25.739L2.91884 25.9119L2.87166 26.2607L2.85003 26.4356L2.80874 26.7865L2.79006 26.9624L2.77237 27.1383L2.75566 27.3143L2.73993 27.4912L2.72518 27.6692L2.71142 27.8461L2.68783 28.2021L2.67701 28.38L2.65932 28.738L2.65244 28.918L2.64654 29.097L2.64162 29.277L2.63769 29.458L2.63474 29.638L2.63278 30L2.63474 30.3621L2.63769 30.5421L2.64162 30.7231L2.64654 30.9031L2.65244 31.0821L2.65932 31.2621L2.67701 31.62L2.68783 31.798L2.71142 32.1539L2.72518 32.3309L2.73993 32.5088L2.75566 32.6858L2.77237 32.8617L2.79006 33.0377L2.80874 33.2136L2.85003 33.5644L2.87166 33.7394L2.91884 34.0882L2.9444 34.261L2.99749 34.6078L3.026 34.7807L3.08498 35.1244L3.11644 35.2963L3.14888 35.4672L3.1823 35.638L3.21671 35.8088L3.25112 35.9787L3.28749 36.1485L3.32484 36.3173L3.36318 36.4861L3.40251 36.6549L3.44281 36.8227L3.4841 36.9905L3.52637 37.1573L3.56864 37.3251L3.61288 37.4909L3.6581 37.6566L3.7043 37.8224L3.75149 37.9882L3.79867 38.1529L3.84783 38.3166L3.9481 38.6441L4.0523 38.9695L4.10637 39.1322L4.16044 39.2939L4.27251 39.6153L4.32952 39.776L4.44749 40.0953L4.50746 40.2539L4.5684 40.4126L4.63034 40.5702L4.69325 40.7278L4.75617 40.8844L4.82105 41.0411L4.88691 41.1977L4.95278 41.3533L5.01963 41.5078L5.15725 41.817L5.22705 41.9705L5.29783 42.1231L5.44135 42.4282L5.51508 42.5797L5.58881 42.7302L5.66451 42.8807L5.7402 43.0302L5.81688 43.1797L5.89454 43.3292L5.97319 43.4767L6.05183 43.6251L6.13244 43.7716L6.21305 43.919L6.29464 44.0644L6.3782 44.2099L6.46078 44.3553L6.54532 44.4997L6.63085 44.6441L6.71637 44.7865L6.80288 44.9299L6.89037 45.0722L6.97885 45.2136L7.15776 45.4943L7.2482 45.6346L7.34061 45.7739L7.43203 45.9122L7.52542 46.0506L7.6198 46.1878L7.71417 46.3241L7.80953 46.4604L7.90587 46.5967L8.0022 46.7309L8.19881 46.9994L8.2981 47.1326L8.49865 47.397L8.5999 47.5282L8.70214 47.6583L8.80536 47.7885L8.90956 47.9177L9.01377 48.0458L9.11895 48.1739L9.22414 48.3011L9.43844 48.5533L9.54658 48.6784L9.6557 48.8034L9.76482 48.9275L9.87492 49.0506L9.986 49.1726L10.0981 49.2946L10.2101 49.4156L10.3232 49.5367L10.4362 49.6556L10.6663 49.8936L10.7813 50.0106L10.8983 50.1275L11.0153 50.2434L11.1332 50.3594L11.2512 50.4743L11.3701 50.5882L11.4901 50.7011L11.611 50.8139L11.7319 50.9258L11.8538 51.0367L11.9757 51.1465L12.0986 51.2563L12.2224 51.3651L12.3463 51.4729L12.4712 51.5807L12.597 51.6875L12.7228 51.7933L12.8496 51.898L13.1052 52.1055L13.234 52.2082L13.4935 52.4116L13.6233 52.5112L13.755 52.6109L13.8868 52.7095L14.0185 52.8072L14.1512 52.9048L14.2849 53.0014L14.4186 53.096L14.5533 53.1916L14.6889 53.2851L14.9602 53.4702L15.0969 53.5617L15.2345 53.6523L15.3731 53.7417L15.5108 53.8302L15.6503 53.9187L15.7899 54.0062L15.9305 54.0916L16.0711 54.178L16.2117 54.2624L16.3542 54.3458L16.4958 54.4292L16.6393 54.5106L16.7818 54.5919L16.9264 54.6723L17.0709 54.7516L17.2154 54.8299L17.3609 54.9082L17.5063 54.9845L17.6528 55.0607L17.9477 55.2092L18.0952 55.2824L18.2436 55.3546L18.5425 55.497L18.6919 55.5662L18.8423 55.6343L18.9937 55.7024L19.1451 55.7695L19.2965 55.8346L19.4489 55.8997L19.6012 55.9638L19.7546 56.0268L19.9079 56.0889L20.2166 56.2109L20.3719 56.2699L20.6826 56.3858L20.8389 56.4417L21.1535 56.5516L21.3108 56.6055L21.6273 56.7092L21.7856 56.7601L21.9448 56.8089L22.1051 56.8577L22.2653 56.9055L22.4255 56.9523L22.5858 56.998L22.748 57.0418L22.9092 57.0855L23.0714 57.1282L23.2336 57.1699L23.3968 57.2106L23.56 57.2502L23.7232 57.2889L23.8873 57.3265L24.0515 57.3621L24.2167 57.3977L24.3818 57.4323L24.547 57.4658L24.7131 57.4984L25.0454 57.5594L25.2125 57.5889L25.5477 57.6438L25.7148 57.6702L26.052 57.719L26.2211 57.7414L26.5603 57.7841L26.7303 57.8034L26.9004 57.8218L27.0705 57.839L27.2415 57.8553L27.4135 57.8706L27.5846 57.8848L27.9287 57.9092L28.1007 57.9204L28.4467 57.9387L28.6207 57.9458L28.7938 57.9519L28.9678 57.957L29.1427 57.9611L29.3167 57.9641L29.6667 57.9662L30.0167 57.9641L30.1907 57.9611L30.3657 57.957L30.5397 57.9519L30.7127 57.9458L30.8867 57.9387L31.2327 57.9204L31.4047 57.9092L31.7488 57.8848L31.9199 57.8706L32.0919 57.8553L32.2629 57.839L32.433 57.8218L32.6031 57.8034L32.7731 57.7841L33.1123 57.7414L33.2814 57.719L33.6186 57.6702L33.7857 57.6438L34.1209 57.5889L34.288 57.5594L34.6203 57.4984L34.7864 57.4658L34.9516 57.4323L35.1167 57.3977L35.2819 57.3621L35.4461 57.3265L35.6102 57.2889L35.7734 57.2502L35.9366 57.2106L36.0998 57.1699L36.262 57.1282L36.4242 57.0855L36.5854 57.0418L36.7476 56.998L36.9079 56.9523L37.0681 56.9055L37.2283 56.8577L37.3886 56.8089L37.5478 56.7601L37.7061 56.7092L38.0226 56.6055L38.1799 56.5516L38.4945 56.4417L38.6508 56.3858L38.9615 56.2699L39.1168 56.2109L39.4255 56.0889L39.5788 56.0268L39.7322 55.9638L39.8845 55.8997L40.0369 55.8346L40.1883 55.7695L40.3397 55.7024L40.4911 55.6343L40.6415 55.5662L40.7909 55.497L41.0898 55.3546L41.2382 55.2824L41.3857 55.2092L41.6806 55.0607L41.8271 54.9845L41.9725 54.9082L42.118 54.8299L42.2625 54.7516L42.4071 54.6723L42.5516 54.5919L42.6941 54.5106L42.8376 54.4292L42.9792 54.3458L43.1217 54.2624L43.2623 54.178L43.4029 54.0916L43.5435 54.0062L43.6831 53.9187L43.8227 53.8302L43.9603 53.7417L44.0989 53.6523L44.2365 53.5617L44.3732 53.4702L44.6445 53.2851L44.7801 53.1916L44.9148 53.096L45.0485 53.0014L45.1822 52.9048L45.3149 52.8072L45.4466 52.7095L45.5784 52.6109L45.7101 52.5112L45.8399 52.4116L46.0994 52.2082L46.2282 52.1055L46.4838 51.898L46.6106 51.7933L46.7364 51.6875L46.8622 51.5807L46.9871 51.4729L47.111 51.3651L47.2348 51.2563L47.3577 51.1465L47.4796 51.0367L47.6015 50.9258L47.7224 50.8139L47.8433 50.7011L47.9633 50.5882L48.0822 50.4743L48.2002 50.3594L48.3181 50.2434L48.4351 50.1275L48.5521 50.0106L48.6671 49.8936L48.8972 49.6556L49.0102 49.5367L49.1233 49.4156L49.2353 49.2946L49.3474 49.1726L49.4585 49.0506L49.5686 48.9275L49.6777 48.8034L49.7868 48.6784L49.895 48.5533L50.0021 48.4272L50.1083 48.3011L50.2145 48.1739L50.3196 48.0458L50.4238 47.9177L50.528 47.7885L50.6313 47.6583L50.7335 47.5282L50.8348 47.397L51.0353 47.1326L51.1346 46.9994L51.3312 46.7309L51.4275 46.5967L51.5239 46.4604L51.6192 46.3241L51.7136 46.1878L51.808 46.0506L51.9014 45.9122L51.9928 45.7739L52.0852 45.6346L52.1756 45.4943L52.3546 45.2136L52.443 45.0722L52.5305 44.9299L52.617 44.7865L52.7026 44.6441L52.7881 44.4997L52.8726 44.3553L52.9552 44.2099L53.0388 44.0644L53.1204 43.919L53.201 43.7716L53.2816 43.6251L53.3602 43.4767L53.4389 43.3292L53.5165 43.1797L53.5932 43.0302L53.6689 42.8807L53.7446 42.7302L53.8183 42.5797L53.892 42.4282L54.0356 42.1231L54.1064 41.9705L54.1761 41.817L54.3138 41.5078L54.3806 41.3533L54.4465 41.1977L54.5124 41.0411L54.5772 40.8844L54.6401 40.7278L54.7031 40.5702L54.765 40.4126L54.8259 40.2539L54.8859 40.0953L55.0039 39.776L55.0609 39.6153L55.173 39.2939L55.227 39.1322L55.3332 38.8068L55.3853 38.6441L55.4856 38.3166L55.5347 38.1529L55.5819 37.9882L55.6291 37.8224L55.6753 37.6566L55.7205 37.4909L55.7648 37.3251L55.807 37.1573L55.8493 36.9905L55.8906 36.8227L55.9309 36.6549L55.9702 36.4861L56.0086 36.3173L56.0459 36.1485L56.0823 35.9787L56.1167 35.8088L56.1511 35.638L56.1845 35.4672L56.217 35.2963L56.2484 35.1244L56.3074 34.7807L56.3359 34.6078L56.389 34.261L56.4146 34.0882L56.4617 33.7394L56.4834 33.5644L56.5247 33.2136L56.5433 33.0377L56.561 32.8617L56.5777 32.6858L56.5935 32.5088L56.6082 32.3309L56.622 32.1539L56.6456 31.798L56.6564 31.62L56.6741 31.2621L56.681 31.0821L56.6869 30.9031L56.6918 30.7231L56.6957 30.5421L56.6987 30.3621L56.7006 30L56.6987 29.638L56.6957 29.458L56.6918 29.277L56.6869 29.097L56.681 28.918L56.6741 28.738L56.6564 28.38L56.6456 28.2021L56.622 27.8461L56.6082 27.6692L56.5935 27.4912L56.5777 27.3143L56.561 27.1383L56.5433 26.9624L56.5247 26.7865L56.4834 26.4356L56.4617 26.2607L56.4146 25.9119L56.389 25.739L56.3359 25.3922L56.3074 25.2193L56.2484 24.8756L56.217 24.7038L56.1845 24.5329L56.1511 24.3621L56.1167 24.1912L56.0823 24.0214L56.0459 23.8515L56.0086 23.6827L55.9702 23.5139L55.9309 23.3451L55.8906 23.1773L55.8493 23.0095L55.807 22.8427L55.7648 22.6749L55.7205 22.5092L55.6753 22.3434L55.6291 22.1776L55.5819 22.0119L55.5347 21.8471L55.4856 21.6834L55.3853 21.356L55.3332 21.1932L55.227 20.8678L55.173 20.7061L55.0609 20.3848L55.0039 20.2241L54.8859 19.9048L54.8259 19.7461L54.765 19.5875L54.7031 19.4298L54.6401 19.2722L54.5772 19.1156L54.5124 18.959L54.4465 18.8024L54.3806 18.6468L54.3138 18.4922L54.1761 18.1831L54.1064 18.0295L54.0356 17.877L53.892 17.5719L53.8183 17.4204L53.7446 17.2698L53.6689 17.1193L53.5932 16.9698L53.5165 16.8204L53.4389 16.6709L53.3602 16.5234L53.2816 16.3749L53.201 16.2285L53.1204 16.081L53.0388 15.9356L52.9552 15.7902L52.8726 15.6448L52.7881 15.5004L52.7026 15.3559L52.617 15.2136L52.5305 15.0702L52.443 14.9278L52.3546 14.7865L52.1756 14.5058L52.0852 14.3654L51.9928 14.2261L51.9014 14.0878L51.808 13.9495L51.7136 13.8122L51.6192 13.6759L51.5239 13.5397L51.4275 13.4034L51.3312 13.2692L51.1346 13.0007L51.0353 12.8675L50.8348 12.6031L50.7335 12.4719L50.6313 12.3417L50.528 12.2115L50.4238 12.0824L50.3196 11.9542L50.2145 11.8261L50.1083 11.699L50.0021 11.5729L49.895 11.4468L49.7868 11.3217L49.6777 11.1966L49.5686 11.0726L49.4585 10.9495L49.3474 10.8275L49.2353 10.7054L49.1233 10.5844L49.0102 10.4634L48.8972 10.3444L48.6671 10.1065L48.5521 9.9895L48.4351 9.87255L48.3181 9.75662L48.2002 9.64069L48.0822 9.52577L47.9633 9.41187L47.8433 9.29899L47.7224 9.18611L47.6015 9.07425L47.3577 8.85255L47.2348 8.74374L47.111 8.63492L46.9871 8.52713L46.8622 8.41933L46.7364 8.31255L46.6106 8.20679L46.4838 8.10204L46.2282 7.89458L46.0994 7.79187L45.8399 7.58848L45.7101 7.48882L45.5784 7.38916L45.4466 7.29052L45.3149 7.19289L45.1822 7.09526L45.0485 6.99865L44.9148 6.90407L44.7801 6.80848L44.6445 6.71492L44.3732 6.52984L44.2365 6.43831L44.0989 6.3478L43.9603 6.25831L43.8227 6.16984L43.6831 6.08136L43.5435 5.9939L43.4029 5.90848L43.2623 5.82204L43.1217 5.73763L42.9792 5.65424L42.8376 5.57085L42.6941 5.4895L42.5516 5.40814L42.4071 5.3278L42.2625 5.24848L42.118 5.17017L41.9725 5.09187L41.8271 5.0156L41.6806 4.93933L41.3857 4.79085L41.2382 4.71763L41.0898 4.64543L40.7909 4.50306L40.6415 4.4339L40.4911 4.36577L40.3397 4.29763L40.1883 4.23051L40.0369 4.16543L39.8845 4.10034L39.7322 4.03627L39.5788 3.97322L39.4255 3.91119L39.1168 3.78916L38.9615 3.73017L38.6508 3.61424L38.4945 3.55831L38.3372 3.50238L38.0226 3.39458L37.7061 3.29085L37.5478 3.24L37.3886 3.19119L37.2283 3.14238L37.0681 3.09458L36.9079 3.0478L36.7476 3.00204L36.5854 2.95831L36.4242 2.91458L36.262 2.87187L36.0998 2.83017L35.9366 2.78949L35.7734 2.74983L35.6102 2.71119L35.4461 2.67356L35.2819 2.63797L35.1167 2.60238L34.9516 2.5678L34.7864 2.53424L34.6203 2.5017L34.288 2.44068L34.1209 2.41119L33.7857 2.35627L33.6186 2.32983L33.2814 2.28102L33.1123 2.25865L32.7731 2.21593L32.6031 2.19661L32.433 2.17831L32.2629 2.16102L32.0919 2.14475L31.9199 2.12949L31.7488 2.11526L31.4047 2.09085L31.2327 2.07966L30.8867 2.06136L30.7127 2.05424L30.5397 2.04814L30.3657 2.04305L30.1907 2.03899L30.0167 2.03593L29.6667 2.0339L29.3167 2.03593Z" fill="#666D89"/>
<path fill-rule="evenodd" clip-rule="evenodd" d="M42.6161 16.58C41.025 14.938 38.9322 14 36.8674 14C35.1274 14 33.5237 14.668 32.354 15.877L27.6492 20.781C27.6347 20.795 27.6183 20.805 27.6038 20.819C27.5961 20.827 27.5922 20.838 27.5845 20.846L27.5864 20.848L17.6007 31.256C17.1406 31.728 16.8061 32.319 16.6215 32.961L14.3508 41.469C14.3479 41.492 14.2 42.161 14.2 42.5C14.2 44.433 15.7167 46 17.5882 46C17.9603 46 18.6805 45.817 18.7066 45.813L26.902 43.584C27.5236 43.393 28.09 43.045 28.5502 42.568L43.3034 27.186C45.9879 24.406 45.6853 19.75 42.6161 16.58ZM29.6812 37.796C29.6019 36.893 29.3554 36.008 28.9861 35.168L38.125 25.715C38.6837 27.541 38.3976 29.451 37.1728 30.719C37.1651 30.727 37.1554 30.731 37.1477 30.739L37.1603 30.752L29.6899 38.541C29.6908 38.293 29.7024 38.049 29.6812 37.796ZM28.5009 34.256C28.1403 33.643 27.7304 33.052 27.2229 32.528C26.6313 31.916 25.9537 31.438 25.2471 31.035L34.4613 21.504C35.1834 21.836 35.8775 22.309 36.4894 22.941C37.0114 23.481 37.4164 24.084 37.7267 24.712L28.5009 34.256ZM24.3365 30.563C23.4423 30.19 22.5037 29.977 21.5641 29.964L29.0103 22.202C30.15 21.052 31.8107 20.721 33.4454 21.141L24.3365 30.563ZM18.2291 43.873C18.1237 43.899 17.796 43.985 17.5727 44C16.7781 43.991 16.1333 43.322 16.1333 42.5C16.1449 42.333 16.2097 42.044 16.2319 41.937L17.2489 38.123C18.3538 38.092 19.5428 38.537 20.4775 39.506C21.4278 40.487 21.8744 41.741 21.8251 42.897L18.2291 43.873ZM22.7782 42.637C22.755 41.296 22.2272 39.9 21.1619 38.8C20.1547 37.756 18.8371 37.154 17.5224 37.101L18.4852 33.493C18.5548 33.253 18.6921 33.017 18.8622 32.809C20.8014 31.373 23.7835 31.797 25.8561 33.942C28.0465 36.208 28.3858 39.528 26.698 41.51C26.5859 41.57 26.4718 41.629 26.35 41.667L22.7782 42.637ZM41.9356 25.773L40.3077 27.47C40.3077 27.244 40.3338 27.027 40.3145 26.796C40.1444 24.861 39.2715 22.99 37.8563 21.527C36.2816 19.898 34.1926 18.962 32.1249 18.956L33.7267 17.286C34.5261 16.459 35.6445 16 36.8674 16C38.4247 16 40.0216 16.728 41.2493 17.995C42.4035 19.186 43.0917 20.666 43.1884 22.163C43.2793 23.561 42.8346 24.842 41.9356 25.773Z" fill="#666D89"/>
</g>
<defs>
<clipPath id="clip0_0:30">
<rect width="58" height="60" fill="white" transform="translate(0.666672)"/>
</clipPath>
</defs>
</svg>
