<svg width="58" height="60" viewBox="0 0 58 60" fill="none" xmlns="http://www.w3.org/2000/svg">
<g clip-path="url(#clip0_0:33)">
<path fill-rule="evenodd" clip-rule="evenodd" d="M29.3746 0.00203387L29.5614 0.00508475L29.9349 0.0152542L30.3065 0.0294916L30.4923 0.0386441L30.8619 0.061017L31.0467 0.0732204L31.2316 0.0874577L31.4154 0.102712L31.5992 0.118983L31.7821 0.136271L31.9649 0.154576L32.3296 0.195254L32.5115 0.217627L32.6934 0.241017L32.8752 0.265424L33.0561 0.290848L33.236 0.317288L33.5958 0.374238L33.7757 0.404746L33.9546 0.436272L34.1335 0.468814L34.3115 0.502373L34.4894 0.53695L34.6673 0.572543L34.8443 0.609153L35.0212 0.647797L35.1972 0.686441L35.5491 0.767797L35.7241 0.810509L35.8991 0.854238L36.0731 0.898984L36.2471 0.944747L36.4211 0.991526L36.5941 1.03932L36.7671 1.08814L36.9392 1.13797L37.1112 1.18881L37.4533 1.29458L37.6234 1.34848L37.9635 1.46034L38.1326 1.51831L38.3007 1.57627L38.6369 1.69627L38.9711 1.82034L39.3034 1.94848L39.6337 2.08068L39.962 2.21695L40.2884 2.35729L40.4506 2.42949L40.6118 2.5017L40.774 2.57593L40.9343 2.65017L41.0945 2.72543L41.2548 2.80271L41.414 2.88L41.5723 2.95831L41.7306 3.03763L41.8888 3.11797L42.0451 3.19933L42.2024 3.2817L42.3577 3.36509L42.514 3.4495L42.6684 3.53492L42.9771 3.7078L43.1304 3.79627L43.2828 3.88475L43.4352 3.97424L43.5866 4.06577L43.737 4.15729L43.8874 4.24983L44.0378 4.34339L44.1862 4.43797L44.3356 4.53255L44.4831 4.62916L44.6306 4.72678L44.777 4.82441L44.9235 4.92306L45.069 5.02272L45.2145 5.12339L45.358 5.22509L45.5025 5.3278L45.6451 5.43051L45.7876 5.53526L45.9292 5.64001L46.0707 5.74577L46.2113 5.85255L46.4905 6.06814L46.6291 6.17797L46.7667 6.2878L46.9044 6.39865L47.041 6.51051L47.3123 6.73628L47.447 6.85018L47.5807 6.96611L47.8461 7.19797L48.1096 7.43391L48.2403 7.55289L48.3701 7.67289L48.6276 7.91492L48.8823 8.16001L49.0081 8.28408L49.1339 8.40916L49.2588 8.53425L49.3826 8.66035L49.5065 8.78747L49.6284 8.91458L49.7503 9.04272L49.8712 9.17187L49.9921 9.30204L50.1121 9.43221L50.349 9.6956L50.5829 9.96204L50.6989 10.0963L50.8139 10.2315L51.042 10.5041L51.2662 10.7787L51.3782 10.917L51.4883 11.0563L51.7066 11.337L51.8147 11.4783L51.9219 11.6207L52.028 11.7631L52.1342 11.9065L52.3426 12.1953L52.4458 12.3407L52.5481 12.4871L52.6493 12.6336L52.7506 12.781L52.8499 12.9285L52.9491 13.078L53.0474 13.2265L53.1448 13.377L53.2411 13.5275L53.3365 13.679L53.4308 13.8305L53.5252 13.9831L53.6186 14.1356L53.71 14.2902L53.8014 14.4437L53.8919 14.5993L53.9813 14.7549L54.0698 14.9105L54.1583 15.0671L54.2448 15.2248L54.3303 15.3824L54.4159 15.541L54.583 15.8604L54.6656 16.02L54.7471 16.1817L54.8278 16.3424L54.9074 16.5051L54.986 16.6668L55.0637 16.8305L55.1404 16.9943L55.2161 17.158L55.2908 17.3227L55.3655 17.4885L55.4382 17.6543L55.51 17.82L55.5818 17.9878L55.6516 18.1546L55.7213 18.3224L55.857 18.66L55.9887 18.9997L56.1165 19.3414L56.2404 19.6851L56.3603 20.0309L56.4763 20.3787L56.5324 20.5526L56.5884 20.7275L56.6965 21.0793L56.7486 21.2553L56.8509 21.6092L56.9 21.7871L56.9482 21.9651L56.9954 22.1441L57.0416 22.3231L57.0868 22.5031L57.131 22.6831L57.1743 22.8631L57.2166 23.0441L57.2579 23.2251L57.3365 23.5892L57.3739 23.7712L57.4112 23.9543L57.4466 24.1373L57.481 24.3214L57.5144 24.5054L57.5469 24.6895L57.5783 24.8746L57.6088 25.0597L57.6383 25.2458L57.6933 25.618L57.7189 25.8041L57.7435 25.9912L57.7671 26.1793L57.7897 26.3675L57.8113 26.5556L57.8506 26.9329L57.8683 27.1221L57.885 27.3112L57.9008 27.5014L57.9155 27.6916L57.9293 27.8827L57.9411 28.0739L57.9627 28.4563L57.9716 28.6485L57.9853 29.0329L57.9951 29.4194L57.9981 29.6126L58.0001 30L57.9981 30.3875L57.9951 30.5807L57.9853 30.9671L57.9716 31.3516L57.9627 31.5438L57.9411 31.9261L57.9293 32.1173L57.9155 32.3085L57.9008 32.4987L57.885 32.6888L57.8683 32.878L57.8506 33.0672L57.8113 33.4444L57.7897 33.6326L57.7671 33.8207L57.7435 34.0088L57.7189 34.196L57.6933 34.3821L57.6383 34.7543L57.6088 34.9404L57.5783 35.1255L57.5469 35.3105L57.5144 35.4946L57.481 35.6787L57.4466 35.8627L57.4112 36.0458L57.3739 36.2288L57.3365 36.4109L57.2579 36.7749L57.2166 36.956L57.1743 37.137L57.131 37.317L57.0868 37.497L57.0416 37.677L56.9954 37.856L56.9482 38.035L56.9 38.2129L56.8509 38.3909L56.7486 38.7448L56.6965 38.9207L56.5884 39.2726L56.5324 39.4475L56.4763 39.6214L56.3603 39.9692L56.2404 40.315L56.1165 40.6587L55.9887 41.0004L55.857 41.34L55.7213 41.6777L55.6516 41.8455L55.5818 42.0122L55.51 42.18L55.4382 42.3458L55.3655 42.5116L55.2908 42.6773L55.2161 42.8421L55.1404 43.0058L55.0637 43.1695L54.986 43.3333L54.9074 43.495L54.8278 43.6577L54.7471 43.8183L54.6656 43.98L54.583 44.1397L54.4159 44.459L54.3303 44.6177L54.2448 44.7753L54.1583 44.9329L54.0698 45.0895L53.9813 45.2451L53.8919 45.4007L53.8014 45.5563L53.71 45.7099L53.6186 45.8644L53.5252 46.017L53.4308 46.1695L53.3365 46.3211L53.2411 46.4726L53.1448 46.6231L53.0474 46.7736L52.9491 46.9221L52.8499 47.0716L52.7506 47.219L52.6493 47.3665L52.5481 47.5129L52.4458 47.6594L52.3426 47.8048L52.1342 48.0936L52.028 48.237L51.9219 48.3794L51.8147 48.5217L51.7066 48.6631L51.4883 48.9438L51.3782 49.0831L51.2662 49.2214L51.042 49.496L50.8139 49.7685L50.6989 49.9038L50.5829 50.038L50.349 50.3045L50.1121 50.5678L49.9921 50.698L49.8712 50.8282L49.7503 50.9573L49.5065 51.2136L49.2588 51.4658L49.1339 51.5909L49.0081 51.716L48.8823 51.8401L48.6276 52.0851L48.3701 52.3272L48.2403 52.4472L48.1096 52.5662L47.8461 52.8021L47.5807 53.034L47.447 53.1499L47.3123 53.2638L47.041 53.4895L46.9044 53.6014L46.7667 53.7123L46.6291 53.8221L46.4905 53.9319L46.2113 54.1475L46.0707 54.2543L45.9292 54.3601L45.7876 54.4648L45.6451 54.5695L45.5025 54.6723L45.358 54.775L45.2145 54.8767L45.069 54.9773L44.9235 55.077L44.777 55.1756L44.6306 55.2733L44.4831 55.3709L44.3356 55.4675L44.1862 55.5621L44.0378 55.6567L43.8874 55.7502L43.737 55.8428L43.5866 55.9343L43.4352 56.0258L43.2828 56.1153L43.1304 56.2038L42.9771 56.2923L42.6684 56.4651L42.514 56.5506L42.3577 56.635L42.2024 56.7184L42.0451 56.8007L41.8888 56.8821L41.7306 56.9624L41.5723 57.0418L41.414 57.1201L41.2548 57.1973L41.0945 57.2746L40.9343 57.3499L40.774 57.4241L40.6118 57.4984L40.4506 57.5706L40.2884 57.6428L39.962 57.7831L39.6337 57.9194L39.3034 58.0516L38.9711 58.1797L38.6369 58.3038L38.3007 58.4238L38.1326 58.4818L37.9635 58.5397L37.6234 58.6516L37.4533 58.7055L37.1112 58.8112L36.9392 58.8621L36.7671 58.9119L36.5941 58.9607L36.4211 59.0085L36.2471 59.0553L36.0731 59.1011L35.8991 59.1458L35.7241 59.1895L35.5491 59.2323L35.1972 59.3136L35.0212 59.3523L34.8443 59.3909L34.6673 59.4275L34.4894 59.4631L34.3115 59.4977L34.1335 59.5312L33.9546 59.5638L33.7757 59.5953L33.5958 59.6258L33.236 59.6828L33.0561 59.7092L32.8752 59.7346L32.6934 59.759L32.5115 59.7824L32.3296 59.8048L31.9649 59.8455L31.7821 59.8638L31.5992 59.8811L31.4154 59.8973L31.2316 59.9126L31.0467 59.9268L30.8619 59.939L30.4923 59.9614L30.3065 59.9706L29.9349 59.9848L29.5614 59.995L29.3746 59.998L29 60.0001L28.6255 59.998L28.4387 59.995L28.0651 59.9848L27.6936 59.9706L27.5078 59.9614L27.1381 59.939L26.9533 59.9268L26.7685 59.9126L26.5847 59.8973L26.4008 59.8811L26.218 59.8638L26.0351 59.8455L25.6704 59.8048L25.4886 59.7824L25.3067 59.759L25.1248 59.7346L24.944 59.7092L24.7641 59.6828L24.4043 59.6258L24.2244 59.5953L24.0454 59.5638L23.8665 59.5312L23.6886 59.4977L23.5107 59.4631L23.3327 59.4275L23.1558 59.3909L22.9788 59.3523L22.8029 59.3136L22.4509 59.2323L22.276 59.1895L22.101 59.1458L21.927 59.1011L21.753 59.0553L21.579 59.0085L21.406 58.9607L21.2329 58.9119L21.0609 58.8621L20.8889 58.8112L20.5468 58.7055L20.3767 58.6516L20.0366 58.5397L19.8675 58.4818L19.6994 58.4238L19.3632 58.3038L19.0289 58.1797L18.6967 58.0516L18.3664 57.9194L18.038 57.7831L17.7116 57.6428L17.5494 57.5706L17.3882 57.4984L17.226 57.4241L17.0658 57.3499L16.9055 57.2746L16.7453 57.1973L16.5861 57.1201L16.4278 57.0418L16.2695 56.9624L16.1112 56.8821L15.9549 56.8007L15.7976 56.7184L15.6423 56.635L15.486 56.5506L15.3317 56.4651L15.023 56.2923L14.8696 56.2038L14.7173 56.1153L14.5649 56.0258L14.4135 55.9343L14.2631 55.8428L14.1127 55.7502L13.9623 55.6567L13.8138 55.5621L13.6644 55.4675L13.517 55.3709L13.3695 55.2733L13.223 55.1756L13.0766 55.077L12.9311 54.9773L12.7856 54.8767L12.642 54.775L12.4975 54.6723L12.355 54.5695L12.2125 54.4648L12.0709 54.3601L11.9293 54.2543L11.7888 54.1475L11.5096 53.9319L11.371 53.8221L11.2333 53.7123L11.0957 53.6014L10.9591 53.4895L10.6877 53.2638L10.5531 53.1499L10.4194 53.034L10.1539 52.8021L9.89049 52.5662L9.75974 52.4472L9.62998 52.3272L9.37242 52.0851L9.11781 51.8401L8.99198 51.716L8.86614 51.5909L8.7413 51.4658L8.61743 51.3397L8.49455 51.2136L8.37167 51.0855L8.24977 50.9573L8.12886 50.8282L8.00794 50.698L7.88801 50.5678L7.65109 50.3045L7.41713 50.038L7.30113 49.9038L7.18611 49.7685L6.95804 49.496L6.7339 49.2214L6.62184 49.0831L6.51174 48.9438L6.2935 48.6631L6.18536 48.5217L6.07821 48.3794L5.97204 48.237L5.86587 48.0936L5.65746 47.8048L5.55424 47.6594L5.45201 47.5129L5.35075 47.3665L5.2495 47.219L5.15021 47.0716L5.05092 46.9221L4.95262 46.7736L4.85529 46.6231L4.75895 46.4726L4.6636 46.3211L4.56922 46.1695L4.47485 46.017L4.38146 45.8644L4.29004 45.7099L4.19861 45.5563L4.10817 45.4007L4.01872 45.2451L3.93024 45.0895L3.84177 44.9329L3.75526 44.7753L3.66973 44.6177L3.58421 44.459L3.41709 44.1397L3.33451 43.98L3.25292 43.8183L3.17231 43.6577L3.09268 43.495L3.01404 43.3333L2.93638 43.1695L2.8597 43.0058L2.784 42.8421L2.70929 42.6773L2.63458 42.5116L2.56183 42.3458L2.49007 42.18L2.41831 42.0122L2.34851 41.8455L2.27871 41.6777L2.14305 41.34L2.01132 41.0004L1.88353 40.6587L1.75966 40.315L1.63973 39.9692L1.52373 39.6214L1.4677 39.4475L1.41166 39.2726L1.30353 38.9207L1.25143 38.7448L1.14919 38.3909L1.10003 38.2129L1.05187 38.035L1.00468 37.856L0.958476 37.677L0.913255 37.497L0.869018 37.317L0.825764 37.137L0.783492 36.956L0.742204 36.7749L0.66356 36.4109L0.626204 36.2288L0.588848 36.0458L0.553458 35.8627L0.519051 35.6787L0.485628 35.4946L0.453187 35.3105L0.421729 35.1255L0.391255 34.9404L0.361763 34.7543L0.306712 34.3821L0.281153 34.196L0.256577 34.0088L0.232983 33.8207L0.210373 33.6326L0.188746 33.4444L0.149424 33.0672L0.131729 32.878L0.115017 32.6888L0.0992882 32.4987L0.0845424 32.3085L0.0707798 32.1173L0.0589831 31.9261L0.037356 31.5438L0.0285085 31.3516L0.0147458 30.9671L0.00491525 30.5807L0.00196608 30.3875L0 30L0.00196608 29.6126L0.00491525 29.4194L0.0147458 29.0329L0.0285085 28.6485L0.037356 28.4563L0.0589831 28.0739L0.0707798 27.8827L0.0845424 27.6916L0.0992882 27.5014L0.115017 27.3112L0.131729 27.1221L0.149424 26.9329L0.188746 26.5556L0.210373 26.3675L0.232983 26.1793L0.256577 25.9912L0.281153 25.8041L0.306712 25.618L0.361763 25.2458L0.391255 25.0597L0.421729 24.8746L0.453187 24.6895L0.485628 24.5054L0.519051 24.3214L0.553458 24.1373L0.588848 23.9543L0.626204 23.7712L0.66356 23.5892L0.742204 23.2251L0.783492 23.0441L0.825764 22.8631L0.869018 22.6831L0.913255 22.5031L0.958476 22.3231L1.00468 22.1441L1.05187 21.9651L1.10003 21.7871L1.14919 21.6092L1.25143 21.2553L1.30353 21.0793L1.41166 20.7275L1.4677 20.5526L1.52373 20.3787L1.63973 20.0309L1.75966 19.6851L1.88353 19.3414L2.01132 18.9997L2.14305 18.66L2.27871 18.3224L2.34851 18.1546L2.41831 17.9878L2.49007 17.82L2.56183 17.6543L2.63458 17.4885L2.70929 17.3227L2.784 17.158L2.8597 16.9943L2.93638 16.8305L3.01404 16.6668L3.09268 16.5051L3.17231 16.3424L3.25292 16.1817L3.33451 16.02L3.41709 15.8604L3.58421 15.541L3.66973 15.3824L3.75526 15.2248L3.84177 15.0671L3.93024 14.9105L4.01872 14.7549L4.10817 14.5993L4.19861 14.4437L4.29004 14.2902L4.38146 14.1356L4.47485 13.9831L4.56922 13.8305L4.6636 13.679L4.75895 13.5275L4.85529 13.377L4.95262 13.2265L5.05092 13.078L5.15021 12.9285L5.2495 12.781L5.35075 12.6336L5.45201 12.4871L5.55424 12.3407L5.65746 12.1953L5.86587 11.9065L5.97204 11.7631L6.07821 11.6207L6.18536 11.4783L6.2935 11.337L6.51174 11.0563L6.62184 10.917L6.7339 10.7787L6.95804 10.5041L7.18611 10.2315L7.30113 10.0963L7.41713 9.96204L7.65109 9.6956L7.88801 9.43221L8.00794 9.30204L8.12886 9.17187L8.24977 9.04272L8.37167 8.91458L8.61743 8.66035L8.7413 8.53425L8.86614 8.40916L8.99198 8.28408L9.11781 8.16001L9.37242 7.91492L9.62998 7.67289L9.75974 7.55289L9.89049 7.43391L10.1539 7.19797L10.4194 6.96611L10.5531 6.85018L10.6877 6.73628L10.9591 6.51051L11.0957 6.39865L11.2333 6.2878L11.371 6.17797L11.5096 6.06814L11.7888 5.85255L11.9293 5.74577L12.0709 5.64001L12.2125 5.53526L12.355 5.43051L12.4975 5.3278L12.642 5.22509L12.7856 5.12339L12.9311 5.02272L13.0766 4.92306L13.223 4.82441L13.3695 4.72678L13.517 4.62916L13.6644 4.53255L13.8138 4.43797L13.9623 4.34339L14.1127 4.24983L14.2631 4.15729L14.4135 4.06577L14.5649 3.97424L14.7173 3.88475L14.8696 3.79627L15.023 3.7078L15.3317 3.53492L15.486 3.4495L15.6423 3.36509L15.7976 3.2817L15.9549 3.19933L16.1112 3.11797L16.2695 3.03763L16.4278 2.95831L16.5861 2.88L16.7453 2.80271L16.9055 2.72543L17.0658 2.65017L17.226 2.57593L17.3882 2.5017L17.5494 2.42949L17.7116 2.35729L18.038 2.21695L18.3664 2.08068L18.6967 1.94848L19.0289 1.82034L19.3632 1.69627L19.6994 1.57627L19.8675 1.51831L20.0366 1.46034L20.3767 1.34848L20.5468 1.29458L20.8889 1.18881L21.0609 1.13797L21.2329 1.08814L21.406 1.03932L21.579 0.991526L21.753 0.944747L21.927 0.898984L22.101 0.854238L22.276 0.810509L22.4509 0.767797L22.8029 0.686441L22.9788 0.647797L23.1558 0.609153L23.3327 0.572543L23.5107 0.53695L23.6886 0.502373L23.8665 0.468814L24.0454 0.436272L24.2244 0.404746L24.4043 0.374238L24.7641 0.317288L24.944 0.290848L25.1248 0.265424L25.3067 0.241017L25.4886 0.217627L25.6704 0.195254L26.0351 0.154576L26.218 0.136271L26.4008 0.118983L26.5847 0.102712L26.7685 0.0874577L26.9533 0.0732204L27.1381 0.061017L27.5078 0.0386441L27.6936 0.0294916L28.0651 0.0152542L28.4387 0.00508475L28.6255 0.00203387L29 0L29.3746 0.00203387ZM28.6501 2.03593L28.4761 2.03899L28.3011 2.04305L28.1271 2.04814L27.9541 2.05424L27.7801 2.06136L27.434 2.07966L27.262 2.09085L26.9179 2.11526L26.7469 2.12949L26.5748 2.14475L26.4038 2.16102L26.2337 2.17831L26.0637 2.19661L25.8936 2.21593L25.5544 2.25865L25.3853 2.28102L25.0482 2.32983L24.881 2.35627L24.5458 2.41119L24.3787 2.44068L24.0464 2.5017L23.8803 2.53424L23.7151 2.5678L23.55 2.60238L23.3848 2.63797L23.2207 2.67356L23.0565 2.71119L22.8933 2.74983L22.7301 2.78949L22.5669 2.83017L22.4047 2.87187L22.2425 2.91458L22.0813 2.95831L21.9191 3.00204L21.7589 3.0478L21.5986 3.09458L21.4384 3.14238L21.2782 3.19119L21.1189 3.24L20.9606 3.29085L20.6441 3.39458L20.4868 3.44848L20.1722 3.55831L20.0159 3.61424L19.7053 3.73017L19.55 3.78916L19.2413 3.91119L19.0879 3.97322L18.9346 4.03627L18.7822 4.10034L18.6298 4.16543L18.4784 4.23051L18.327 4.29763L18.1756 4.36577L18.0252 4.4339L17.8758 4.50306L17.577 4.64543L17.4285 4.71763L17.2811 4.79085L16.9862 4.93933L16.8397 5.0156L16.6942 5.09187L16.5487 5.17017L16.4042 5.24848L16.2597 5.3278L16.1152 5.40814L15.9726 5.4895L15.8291 5.57085L15.6875 5.65424L15.545 5.73763L15.4044 5.82204L15.2638 5.90848L15.1233 5.9939L14.9837 6.08136L14.8441 6.16984L14.7065 6.25831L14.5678 6.3478L14.4302 6.43831L14.2936 6.52984L14.0223 6.71492L13.8866 6.80848L13.7519 6.90407L13.6182 6.99865L13.4845 7.09526L13.3518 7.19289L13.2201 7.29052L13.0884 7.38916L12.9566 7.48882L12.8269 7.58848L12.5673 7.79187L12.4386 7.89458L12.183 8.10204L12.0561 8.20679L11.9303 8.31255L11.8045 8.41933L11.6796 8.52713L11.5558 8.63492L11.4319 8.74374L11.309 8.85255L11.0652 9.07425L10.9443 9.18611L10.8234 9.29899L10.7035 9.41187L10.5845 9.52577L10.4666 9.64069L10.3486 9.75662L10.2316 9.87255L10.1146 9.9895L9.9996 10.1065L9.76957 10.3444L9.65652 10.4634L9.54347 10.5844L9.4314 10.7054L9.31933 10.8275L9.20825 10.9495L9.09815 11.0726L8.98903 11.1966L8.87991 11.3217L8.77177 11.4468L8.55747 11.699L8.45228 11.8261L8.34709 11.9542L8.24289 12.0824L8.13869 12.2115L8.03547 12.3417L7.93323 12.4719L7.83197 12.6031L7.63143 12.8675L7.53214 13.0007L7.33553 13.2692L7.23919 13.4034L7.14286 13.5397L7.0475 13.6759L6.95313 13.8122L6.85875 13.9495L6.76536 14.0878L6.67394 14.2261L6.58153 14.3654L6.49109 14.5058L6.31218 14.7865L6.2237 14.9278L6.13621 15.0702L6.0497 15.2136L5.96418 15.3559L5.87865 15.5004L5.79411 15.6448L5.71153 15.7902L5.62797 15.9356L5.54638 16.081L5.46577 16.2285L5.38516 16.3749L5.30651 16.5234L5.22787 16.6709L5.15021 16.8204L5.07353 16.9698L4.99784 17.1193L4.92214 17.2698L4.84841 17.4204L4.77468 17.5719L4.63116 17.877L4.56038 18.0295L4.49058 18.1831L4.35295 18.4922L4.28611 18.6468L4.22024 18.8024L4.15438 18.959L4.0895 19.1156L4.02658 19.2722L3.96367 19.4298L3.90173 19.5875L3.84078 19.7461L3.78082 19.9048L3.66285 20.2241L3.60583 20.3848L3.49377 20.7061L3.4397 20.8678L3.33353 21.1932L3.28143 21.356L3.18116 21.6834L3.132 21.8471L3.08482 22.0119L3.03763 22.1776L2.99143 22.3434L2.94621 22.5092L2.90197 22.6749L2.8597 22.8427L2.81743 23.0095L2.77614 23.1773L2.73583 23.3451L2.69651 23.5139L2.65817 23.6827L2.62082 23.8515L2.58444 24.0214L2.55004 24.1912L2.51563 24.3621L2.48221 24.5329L2.44977 24.7038L2.41831 24.8756L2.35932 25.2193L2.33082 25.3922L2.27773 25.739L2.25217 25.9119L2.20499 26.2607L2.18336 26.4356L2.14207 26.7865L2.12339 26.9624L2.1057 27.1383L2.08899 27.3143L2.07326 27.4912L2.05851 27.6692L2.04475 27.8461L2.02115 28.2021L2.01034 28.38L1.99265 28.738L1.98576 28.918L1.97987 29.097L1.97495 29.277L1.97102 29.458L1.96807 29.638L1.9661 30L1.96807 30.3621L1.97102 30.5421L1.97495 30.7231L1.97987 30.9031L1.98576 31.0821L1.99265 31.2621L2.01034 31.62L2.02115 31.798L2.04475 32.1539L2.05851 32.3309L2.07326 32.5088L2.08899 32.6858L2.1057 32.8617L2.12339 33.0377L2.14207 33.2136L2.18336 33.5644L2.20499 33.7394L2.25217 34.0882L2.27773 34.261L2.33082 34.6078L2.35932 34.7807L2.41831 35.1244L2.44977 35.2963L2.48221 35.4672L2.51563 35.638L2.55004 35.8088L2.58444 35.9787L2.62082 36.1485L2.65817 36.3173L2.69651 36.4861L2.73583 36.6549L2.77614 36.8227L2.81743 36.9905L2.8597 37.1573L2.90197 37.3251L2.94621 37.4909L2.99143 37.6566L3.03763 37.8224L3.08482 37.9882L3.132 38.1529L3.18116 38.3166L3.28143 38.6441L3.38563 38.9695L3.4397 39.1322L3.49377 39.2939L3.60583 39.6153L3.66285 39.776L3.78082 40.0953L3.84078 40.2539L3.90173 40.4126L3.96367 40.5702L4.02658 40.7278L4.0895 40.8844L4.15438 41.0411L4.22024 41.1977L4.28611 41.3533L4.35295 41.5078L4.49058 41.817L4.56038 41.9705L4.63116 42.1231L4.77468 42.4282L4.84841 42.5797L4.92214 42.7302L4.99784 42.8807L5.07353 43.0302L5.15021 43.1797L5.22787 43.3292L5.30651 43.4767L5.38516 43.6251L5.46577 43.7716L5.54638 43.919L5.62797 44.0644L5.71153 44.2099L5.79411 44.3553L5.87865 44.4997L5.96418 44.6441L6.0497 44.7865L6.13621 44.9299L6.2237 45.0722L6.31218 45.2136L6.49109 45.4943L6.58153 45.6346L6.67394 45.7739L6.76536 45.9122L6.85875 46.0506L6.95313 46.1878L7.0475 46.3241L7.14286 46.4604L7.23919 46.5967L7.33553 46.7309L7.53214 46.9994L7.63143 47.1326L7.83197 47.397L7.93323 47.5282L8.03547 47.6583L8.13869 47.7885L8.24289 47.9177L8.34709 48.0458L8.45228 48.1739L8.55747 48.3011L8.77177 48.5533L8.87991 48.6784L8.98903 48.8034L9.09815 48.9275L9.20825 49.0506L9.31933 49.1726L9.4314 49.2946L9.54347 49.4156L9.65652 49.5367L9.76957 49.6556L9.9996 49.8936L10.1146 50.0106L10.2316 50.1275L10.3486 50.2434L10.4666 50.3594L10.5845 50.4743L10.7035 50.5882L10.8234 50.7011L10.9443 50.8139L11.0652 50.9258L11.1871 51.0367L11.309 51.1465L11.4319 51.2563L11.5558 51.3651L11.6796 51.4729L11.8045 51.5807L11.9303 51.6875L12.0561 51.7933L12.183 51.898L12.4386 52.1055L12.5673 52.2082L12.8269 52.4116L12.9566 52.5112L13.0884 52.6109L13.2201 52.7095L13.3518 52.8072L13.4845 52.9048L13.6182 53.0014L13.7519 53.096L13.8866 53.1916L14.0223 53.2851L14.2936 53.4702L14.4302 53.5617L14.5678 53.6523L14.7065 53.7417L14.8441 53.8302L14.9837 53.9187L15.1233 54.0062L15.2638 54.0916L15.4044 54.178L15.545 54.2624L15.6875 54.3458L15.8291 54.4292L15.9726 54.5106L16.1152 54.5919L16.2597 54.6723L16.4042 54.7516L16.5487 54.8299L16.6942 54.9082L16.8397 54.9845L16.9862 55.0607L17.2811 55.2092L17.4285 55.2824L17.577 55.3546L17.8758 55.497L18.0252 55.5662L18.1756 55.6343L18.327 55.7024L18.4784 55.7695L18.6298 55.8346L18.7822 55.8997L18.9346 55.9638L19.0879 56.0268L19.2413 56.0889L19.55 56.2109L19.7053 56.2699L20.0159 56.3858L20.1722 56.4417L20.4868 56.5516L20.6441 56.6055L20.9606 56.7092L21.1189 56.7601L21.2782 56.8089L21.4384 56.8577L21.5986 56.9055L21.7589 56.9523L21.9191 56.998L22.0813 57.0418L22.2425 57.0855L22.4047 57.1282L22.5669 57.1699L22.7301 57.2106L22.8933 57.2502L23.0565 57.2889L23.2207 57.3265L23.3848 57.3621L23.55 57.3977L23.7151 57.4323L23.8803 57.4658L24.0464 57.4984L24.3787 57.5594L24.5458 57.5889L24.881 57.6438L25.0482 57.6702L25.3853 57.719L25.5544 57.7414L25.8936 57.7841L26.0637 57.8034L26.2337 57.8218L26.4038 57.839L26.5748 57.8553L26.7469 57.8706L26.9179 57.8848L27.262 57.9092L27.434 57.9204L27.7801 57.9387L27.9541 57.9458L28.1271 57.9519L28.3011 57.957L28.4761 57.9611L28.6501 57.9641L29 57.9662L29.35 57.9641L29.524 57.9611L29.699 57.957L29.873 57.9519L30.046 57.9458L30.22 57.9387L30.566 57.9204L30.7381 57.9092L31.0821 57.8848L31.2532 57.8706L31.4252 57.8553L31.5963 57.839L31.7663 57.8218L31.9364 57.8034L32.1065 57.7841L32.4456 57.7414L32.6147 57.719L32.9519 57.6702L33.119 57.6438L33.4542 57.5889L33.6214 57.5594L33.9536 57.4984L34.1198 57.4658L34.2849 57.4323L34.4501 57.3977L34.6152 57.3621L34.7794 57.3265L34.9436 57.2889L35.1068 57.2502L35.2699 57.2106L35.4331 57.1699L35.5953 57.1282L35.7575 57.0855L35.9187 57.0418L36.081 56.998L36.2412 56.9523L36.4014 56.9055L36.5617 56.8577L36.7219 56.8089L36.8812 56.7601L37.0394 56.7092L37.356 56.6055L37.5133 56.5516L37.8278 56.4417L37.9841 56.3858L38.2948 56.2699L38.4501 56.2109L38.7588 56.0889L38.9121 56.0268L39.0655 55.9638L39.2179 55.8997L39.3702 55.8346L39.5216 55.7695L39.673 55.7024L39.8244 55.6343L39.9748 55.5662L40.1243 55.497L40.4231 55.3546L40.5715 55.2824L40.719 55.2092L41.0139 55.0607L41.1604 54.9845L41.3059 54.9082L41.4514 54.8299L41.5959 54.7516L41.7404 54.6723L41.8849 54.5919L42.0274 54.5106L42.171 54.4292L42.3125 54.3458L42.4551 54.2624L42.5956 54.178L42.7362 54.0916L42.8768 54.0062L43.0164 53.9187L43.156 53.8302L43.2936 53.7417L43.4322 53.6523L43.5698 53.5617L43.7065 53.4702L43.9778 53.2851L44.1135 53.1916L44.2481 53.096L44.3818 53.0014L44.5155 52.9048L44.6483 52.8072L44.78 52.7095L44.9117 52.6109L45.0434 52.5112L45.1732 52.4116L45.4327 52.2082L45.5615 52.1055L45.8171 51.898L45.9439 51.7933L46.0697 51.6875L46.1956 51.5807L46.3204 51.4729L46.4443 51.3651L46.5682 51.2563L46.691 51.1465L46.8129 51.0367L46.9348 50.9258L47.0557 50.8139L47.1767 50.7011L47.2966 50.5882L47.4155 50.4743L47.5335 50.3594L47.6515 50.2434L47.7685 50.1275L47.8854 50.0106L48.0005 49.8936L48.2305 49.6556L48.3435 49.5367L48.4566 49.4156L48.5687 49.2946L48.6807 49.1726L48.7918 49.0506L48.9019 48.9275L49.011 48.8034L49.1202 48.6784L49.2283 48.5533L49.3354 48.4272L49.4416 48.3011L49.5478 48.1739L49.653 48.0458L49.7572 47.9177L49.8614 47.7885L49.9646 47.6583L50.0668 47.5282L50.1681 47.397L50.3686 47.1326L50.4679 46.9994L50.6645 46.7309L50.7609 46.5967L50.8572 46.4604L50.9526 46.3241L51.0469 46.1878L51.1413 46.0506L51.2347 45.9122L51.3261 45.7739L51.4185 45.6346L51.509 45.4943L51.6879 45.2136L51.7764 45.0722L51.8638 44.9299L51.9504 44.7865L52.0359 44.6441L52.1214 44.4997L52.206 44.3553L52.2885 44.2099L52.3721 44.0644L52.4537 43.919L52.5343 43.7716L52.6149 43.6251L52.6935 43.4767L52.7722 43.3292L52.8499 43.1797L52.9265 43.0302L53.0022 42.8807L53.0779 42.7302L53.1516 42.5797L53.2254 42.4282L53.3689 42.1231L53.4397 41.9705L53.5095 41.817L53.6471 41.5078L53.714 41.3533L53.7798 41.1977L53.8457 41.0411L53.9106 40.8844L53.9735 40.7278L54.0364 40.5702L54.0983 40.4126L54.1593 40.2539L54.2192 40.0953L54.3372 39.776L54.3942 39.6153L54.5063 39.2939L54.5604 39.1322L54.6665 38.8068L54.7186 38.6441L54.8189 38.3166L54.8681 38.1529L54.9152 37.9882L54.9624 37.8224L55.0086 37.6566L55.0539 37.4909L55.0981 37.3251L55.1404 37.1573L55.1826 36.9905L55.2239 36.8227L55.2642 36.6549L55.3036 36.4861L55.3419 36.3173L55.3792 36.1485L55.4156 35.9787L55.45 35.8088L55.4844 35.638L55.5179 35.4672L55.5503 35.2963L55.5818 35.1244L55.6407 34.7807L55.6692 34.6078L55.7223 34.261L55.7479 34.0882L55.7951 33.7394L55.8167 33.5644L55.858 33.2136L55.8767 33.0377L55.8944 32.8617L55.9111 32.6858L55.9268 32.5088L55.9416 32.3309L55.9553 32.1539L55.9789 31.798L55.9897 31.62L56.0074 31.2621L56.0143 31.0821L56.0202 30.9031L56.0251 30.7231L56.029 30.5421L56.032 30.3621L56.034 30L56.032 29.638L56.029 29.458L56.0251 29.277L56.0202 29.097L56.0143 28.918L56.0074 28.738L55.9897 28.38L55.9789 28.2021L55.9553 27.8461L55.9416 27.6692L55.9268 27.4912L55.9111 27.3143L55.8944 27.1383L55.8767 26.9624L55.858 26.7865L55.8167 26.4356L55.7951 26.2607L55.7479 25.9119L55.7223 25.739L55.6692 25.3922L55.6407 25.2193L55.5818 24.8756L55.5503 24.7038L55.5179 24.5329L55.4844 24.3621L55.45 24.1912L55.4156 24.0214L55.3792 23.8515L55.3419 23.6827L55.3036 23.5139L55.2642 23.3451L55.2239 23.1773L55.1826 23.0095L55.1404 22.8427L55.0981 22.6749L55.0539 22.5092L55.0086 22.3434L54.9624 22.1776L54.9152 22.0119L54.8681 21.8471L54.8189 21.6834L54.7186 21.356L54.6665 21.1932L54.5604 20.8678L54.5063 20.7061L54.3942 20.3848L54.3372 20.2241L54.2192 19.9048L54.1593 19.7461L54.0983 19.5875L54.0364 19.4298L53.9735 19.2722L53.9106 19.1156L53.8457 18.959L53.7798 18.8024L53.714 18.6468L53.6471 18.4922L53.5095 18.1831L53.4397 18.0295L53.3689 17.877L53.2254 17.5719L53.1516 17.4204L53.0779 17.2698L53.0022 17.1193L52.9265 16.9698L52.8499 16.8204L52.7722 16.6709L52.6935 16.5234L52.6149 16.3749L52.5343 16.2285L52.4537 16.081L52.3721 15.9356L52.2885 15.7902L52.206 15.6448L52.1214 15.5004L52.0359 15.3559L51.9504 15.2136L51.8638 15.0702L51.7764 14.9278L51.6879 14.7865L51.509 14.5058L51.4185 14.3654L51.3261 14.2261L51.2347 14.0878L51.1413 13.9495L51.0469 13.8122L50.9526 13.6759L50.8572 13.5397L50.7609 13.4034L50.6645 13.2692L50.4679 13.0007L50.3686 12.8675L50.1681 12.6031L50.0668 12.4719L49.9646 12.3417L49.8614 12.2115L49.7572 12.0824L49.653 11.9542L49.5478 11.8261L49.4416 11.699L49.3354 11.5729L49.2283 11.4468L49.1202 11.3217L49.011 11.1966L48.9019 11.0726L48.7918 10.9495L48.6807 10.8275L48.5687 10.7054L48.4566 10.5844L48.3435 10.4634L48.2305 10.3444L48.0005 10.1065L47.8854 9.9895L47.7685 9.87255L47.6515 9.75662L47.5335 9.64069L47.4155 9.52577L47.2966 9.41187L47.1767 9.29899L47.0557 9.18611L46.9348 9.07425L46.691 8.85255L46.5682 8.74374L46.4443 8.63492L46.3204 8.52713L46.1956 8.41933L46.0697 8.31255L45.9439 8.20679L45.8171 8.10204L45.5615 7.89458L45.4327 7.79187L45.1732 7.58848L45.0434 7.48882L44.9117 7.38916L44.78 7.29052L44.6483 7.19289L44.5155 7.09526L44.3818 6.99865L44.2481 6.90407L44.1135 6.80848L43.9778 6.71492L43.7065 6.52984L43.5698 6.43831L43.4322 6.3478L43.2936 6.25831L43.156 6.16984L43.0164 6.08136L42.8768 5.9939L42.7362 5.90848L42.5956 5.82204L42.4551 5.73763L42.3125 5.65424L42.171 5.57085L42.0274 5.4895L41.8849 5.40814L41.7404 5.3278L41.5959 5.24848L41.4514 5.17017L41.3059 5.09187L41.1604 5.0156L41.0139 4.93933L40.719 4.79085L40.5715 4.71763L40.4231 4.64543L40.1243 4.50306L39.9748 4.4339L39.8244 4.36577L39.673 4.29763L39.5216 4.23051L39.3702 4.16543L39.2179 4.10034L39.0655 4.03627L38.9121 3.97322L38.7588 3.91119L38.4501 3.78916L38.2948 3.73017L37.9841 3.61424L37.8278 3.55831L37.6705 3.50238L37.356 3.39458L37.0394 3.29085L36.8812 3.24L36.7219 3.19119L36.5617 3.14238L36.4014 3.09458L36.2412 3.0478L36.081 3.00204L35.9187 2.95831L35.7575 2.91458L35.5953 2.87187L35.4331 2.83017L35.2699 2.78949L35.1068 2.74983L34.9436 2.71119L34.7794 2.67356L34.6152 2.63797L34.4501 2.60238L34.2849 2.5678L34.1198 2.53424L33.9536 2.5017L33.6214 2.44068L33.4542 2.41119L33.119 2.35627L32.9519 2.32983L32.6147 2.28102L32.4456 2.25865L32.1065 2.21593L31.9364 2.19661L31.7663 2.17831L31.5963 2.16102L31.4252 2.14475L31.2532 2.12949L31.0821 2.11526L30.7381 2.09085L30.566 2.07966L30.22 2.06136L30.046 2.05424L29.873 2.04814L29.699 2.04305L29.524 2.03899L29.35 2.03593L29 2.0339L28.6501 2.03593Z" fill="#666D89"/>
<path fill-rule="evenodd" clip-rule="evenodd" d="M34.77 37.078C32.8328 42.666 33.1083 46 29 46C24.9526 46 25.1662 42.651 23.23 37.055C21.9327 33.303 18.3667 29.031 18.3667 25C18.3667 18.925 23.1275 14 29 14C34.8725 14 39.6333 18.925 39.6333 25C39.6333 29 36.0721 33.319 34.77 37.078ZM29 44C30.1416 44 30.5737 43.873 31.1663 42.22L27.0696 42.75C27.5703 43.884 28.0208 44 29 44ZM26.1348 39.903C26.3581 40.684 26.5418 41.283 26.7129 41.796L31.5066 41.176C31.6129 40.821 31.727 40.431 31.8536 39.982C31.9319 39.704 32.0237 39.394 32.1088 39.098L26.1261 39.871C26.128 39.881 26.1319 39.893 26.1348 39.903ZM25.8448 38.908L32.4172 38.059C32.5206 37.719 32.6395 37.36 32.7574 37H25.2503C25.4717 37.672 25.6698 38.307 25.8448 38.908ZM29 16C24.2024 16 20.3 20.037 20.3 25C20.3 27.033 21.604 29.448 22.8646 31.783C23.4349 32.84 24.013 33.921 24.4944 35H33.5163C33.9948 33.926 34.568 32.849 35.1335 31.795C36.395 29.446 37.7 27.018 37.7 25C37.7 20.037 33.7976 16 29 16ZM29 20C26.3349 20 24.1667 22.243 24.1667 25C24.1667 25.276 23.9501 25.5 23.6833 25.5C23.4165 25.5 23.2 25.276 23.2 25C23.2 21.691 25.8013 19 29 19C29.2668 19 29.4833 19.224 29.4833 19.5C29.4833 19.777 29.2668 20 29 20Z" fill="#666D89"/>
</g>
<defs>
<clipPath id="clip0_0:33">
<rect width="58" height="60" fill="white"/>
</clipPath>
</defs>
</svg>
