<svg width="59" height="60" viewBox="0 0 59 60" fill="none" xmlns="http://www.w3.org/2000/svg">
<g clip-path="url(#clip0_0:43)">
<path fill-rule="evenodd" clip-rule="evenodd" d="M29.7079 0.00203387L29.8947 0.00508475L30.2683 0.0152542L30.6399 0.0294916L30.8257 0.0386441L31.1953 0.061017L31.3801 0.0732204L31.5649 0.0874577L31.7488 0.102712L31.9326 0.118983L32.1154 0.136271L32.2983 0.154576L32.663 0.195254L32.8449 0.217627L33.0267 0.241017L33.2086 0.265424L33.3895 0.290848L33.5694 0.317288L33.9292 0.374238L34.1091 0.404746L34.288 0.436272L34.4669 0.468814L34.6448 0.502373L34.8228 0.53695L35.0007 0.572543L35.1776 0.609153L35.3546 0.647797L35.5306 0.686441L35.8825 0.767797L36.0575 0.810509L36.2325 0.854238L36.4065 0.898984L36.5805 0.944747L36.7545 0.991526L36.9275 1.03932L37.1005 1.08814L37.2725 1.13797L37.4446 1.18881L37.7867 1.29458L37.9567 1.34848L38.2969 1.46034L38.466 1.51831L38.6341 1.57627L38.9703 1.69627L39.3045 1.82034L39.6368 1.94848L39.9671 2.08068L40.2954 2.21695L40.6218 2.35729L40.784 2.42949L40.9452 2.5017L41.1074 2.57593L41.2677 2.65017L41.4279 2.72543L41.5881 2.80271L41.7474 2.88L41.9057 2.95831L42.0639 3.03763L42.2222 3.11797L42.3785 3.19933L42.5358 3.2817L42.6911 3.36509L42.8474 3.4495L43.0018 3.53492L43.3104 3.7078L43.4638 3.79627L43.6162 3.88475L43.7685 3.97424L43.9199 4.06577L44.0703 4.15729L44.2207 4.24983L44.3712 4.34339L44.5196 4.43797L44.669 4.53255L44.8165 4.62916L44.9639 4.72678L45.1104 4.82441L45.2569 4.92306L45.4024 5.02272L45.5479 5.12339L45.6914 5.22509L45.8359 5.3278L45.9784 5.43051L46.121 5.53526L46.2625 5.64001L46.4041 5.74577L46.5447 5.85255L46.8239 6.06814L46.9625 6.17797L47.1001 6.2878L47.2377 6.39865L47.3744 6.51051L47.6457 6.73628L47.7804 6.85018L47.9141 6.96611L48.1795 7.19797L48.4429 7.43391L48.5737 7.55289L48.7035 7.67289L48.961 7.91492L49.2156 8.16001L49.3415 8.28408L49.4673 8.40916L49.5921 8.53425L49.716 8.66035L49.8399 8.78747L49.9618 8.91458L50.0837 9.04272L50.2046 9.17187L50.3255 9.30204L50.4454 9.43221L50.6823 9.6956L50.9163 9.96204L51.0323 10.0963L51.1473 10.2315L51.3754 10.5041L51.5995 10.7787L51.7116 10.917L51.8217 11.0563L52.0399 11.337L52.1481 11.4783L52.2552 11.6207L52.3614 11.7631L52.4676 11.9065L52.676 12.1953L52.7792 12.3407L52.8814 12.4871L52.9827 12.6336L53.0839 12.781L53.1832 12.9285L53.2825 13.078L53.3808 13.2265L53.4781 13.377L53.5745 13.5275L53.6698 13.679L53.7642 13.8305L53.8586 13.9831L53.952 14.1356L54.0434 14.2902L54.1348 14.4437L54.2253 14.5993L54.3147 14.7549L54.4032 14.9105L54.4917 15.0671L54.5782 15.2248L54.6637 15.3824L54.7492 15.541L54.9163 15.8604L54.9989 16.02L55.0805 16.1817L55.1611 16.3424L55.2408 16.5051L55.3194 16.6668L55.3971 16.8305L55.4737 16.9943L55.5494 17.158L55.6241 17.3227L55.6989 17.4885L55.7716 17.6543L55.8434 17.82L55.9151 17.9878L55.9849 18.1546L56.0547 18.3224L56.1904 18.66L56.3221 18.9997L56.4499 19.3414L56.5738 19.6851L56.6937 20.0309L56.8097 20.3787L56.8657 20.5526L56.9218 20.7275L57.0299 21.0793L57.082 21.2553L57.1842 21.6092L57.2334 21.7871L57.2816 21.9651L57.3288 22.1441L57.375 22.3231L57.4202 22.5031L57.4644 22.6831L57.5077 22.8631L57.5499 23.0441L57.5912 23.2251L57.6699 23.5892L57.7072 23.7712L57.7446 23.9543L57.78 24.1373L57.8144 24.3214L57.8478 24.5054L57.8803 24.6895L57.9117 24.8746L57.9422 25.0597L57.9717 25.2458L58.0267 25.618L58.0523 25.8041L58.0769 25.9912L58.1005 26.1793L58.1231 26.3675L58.1447 26.5556L58.184 26.9329L58.2017 27.1221L58.2184 27.3112L58.2341 27.5014L58.2489 27.6916L58.2627 27.8827L58.2745 28.0739L58.2961 28.4563L58.3049 28.6485L58.3187 29.0329L58.3285 29.4194L58.3315 29.6126L58.3334 30L58.3315 30.3875L58.3285 30.5807L58.3187 30.9671L58.3049 31.3516L58.2961 31.5438L58.2745 31.9261L58.2627 32.1173L58.2489 32.3085L58.2341 32.4987L58.2184 32.6888L58.2017 32.878L58.184 33.0672L58.1447 33.4444L58.1231 33.6326L58.1005 33.8207L58.0769 34.0088L58.0523 34.196L58.0267 34.3821L57.9717 34.7543L57.9422 34.9404L57.9117 35.1255L57.8803 35.3105L57.8478 35.4946L57.8144 35.6787L57.78 35.8627L57.7446 36.0458L57.7072 36.2288L57.6699 36.4109L57.5912 36.7749L57.5499 36.956L57.5077 37.137L57.4644 37.317L57.4202 37.497L57.375 37.677L57.3288 37.856L57.2816 38.035L57.2334 38.2129L57.1842 38.3909L57.082 38.7448L57.0299 38.9207L56.9218 39.2726L56.8657 39.4475L56.8097 39.6214L56.6937 39.9692L56.5738 40.315L56.4499 40.6587L56.3221 41.0004L56.1904 41.34L56.0547 41.6777L55.9849 41.8455L55.9151 42.0122L55.8434 42.18L55.7716 42.3458L55.6989 42.5116L55.6241 42.6773L55.5494 42.8421L55.4737 43.0058L55.3971 43.1695L55.3194 43.3333L55.2408 43.495L55.1611 43.6577L55.0805 43.8183L54.9989 43.98L54.9163 44.1397L54.7492 44.459L54.6637 44.6177L54.5782 44.7753L54.4917 44.9329L54.4032 45.0895L54.3147 45.2451L54.2253 45.4007L54.1348 45.5563L54.0434 45.7099L53.952 45.8644L53.8586 46.017L53.7642 46.1695L53.6698 46.3211L53.5745 46.4726L53.4781 46.6231L53.3808 46.7736L53.2825 46.9221L53.1832 47.0716L53.0839 47.219L52.9827 47.3665L52.8814 47.5129L52.7792 47.6594L52.676 47.8048L52.4676 48.0936L52.3614 48.237L52.2552 48.3794L52.1481 48.5217L52.0399 48.6631L51.8217 48.9438L51.7116 49.0831L51.5995 49.2214L51.3754 49.496L51.1473 49.7685L51.0323 49.9038L50.9163 50.038L50.6823 50.3045L50.4454 50.5678L50.3255 50.698L50.2046 50.8282L50.0837 50.9573L49.8399 51.2136L49.5921 51.4658L49.4673 51.5909L49.3415 51.716L49.2156 51.8401L48.961 52.0851L48.7035 52.3272L48.5737 52.4472L48.4429 52.5662L48.1795 52.8021L47.9141 53.034L47.7804 53.1499L47.6457 53.2638L47.3744 53.4895L47.2377 53.6014L47.1001 53.7123L46.9625 53.8221L46.8239 53.9319L46.5447 54.1475L46.4041 54.2543L46.2625 54.3601L46.121 54.4648L45.9784 54.5695L45.8359 54.6723L45.6914 54.775L45.5479 54.8767L45.4024 54.9773L45.2569 55.077L45.1104 55.1756L44.9639 55.2733L44.8165 55.3709L44.669 55.4675L44.5196 55.5621L44.3712 55.6567L44.2207 55.7502L44.0703 55.8428L43.9199 55.9343L43.7685 56.0258L43.6162 56.1153L43.4638 56.2038L43.3104 56.2923L43.0018 56.4651L42.8474 56.5506L42.6911 56.635L42.5358 56.7184L42.3785 56.8007L42.2222 56.8821L42.0639 56.9624L41.9057 57.0418L41.7474 57.1201L41.5881 57.1973L41.4279 57.2746L41.2677 57.3499L41.1074 57.4241L40.9452 57.4984L40.784 57.5706L40.6218 57.6428L40.2954 57.7831L39.9671 57.9194L39.6368 58.0516L39.3045 58.1797L38.9703 58.3038L38.6341 58.4238L38.466 58.4818L38.2969 58.5397L37.9567 58.6516L37.7867 58.7055L37.4446 58.8112L37.2725 58.8621L37.1005 58.9119L36.9275 58.9607L36.7545 59.0085L36.5805 59.0553L36.4065 59.1011L36.2325 59.1458L36.0575 59.1895L35.8825 59.2323L35.5306 59.3136L35.3546 59.3523L35.1776 59.3909L35.0007 59.4275L34.8228 59.4631L34.6448 59.4977L34.4669 59.5312L34.288 59.5638L34.1091 59.5953L33.9292 59.6258L33.5694 59.6828L33.3895 59.7092L33.2086 59.7346L33.0267 59.759L32.8449 59.7824L32.663 59.8048L32.2983 59.8455L32.1154 59.8638L31.9326 59.8811L31.7488 59.8973L31.5649 59.9126L31.3801 59.9268L31.1953 59.939L30.8257 59.9614L30.6399 59.9706L30.2683 59.9848L29.8947 59.995L29.7079 59.998L29.3334 60.0001L28.9589 59.998L28.7721 59.995L28.3985 59.9848L28.0269 59.9706L27.8411 59.9614L27.4715 59.939L27.2867 59.9268L27.1019 59.9126L26.918 59.8973L26.7342 59.8811L26.5514 59.8638L26.3685 59.8455L26.0038 59.8048L25.8219 59.7824L25.6401 59.759L25.4582 59.7346L25.2773 59.7092L25.0974 59.6828L24.7376 59.6258L24.5577 59.5953L24.3788 59.5638L24.1999 59.5312L24.022 59.4977L23.844 59.4631L23.6661 59.4275L23.4892 59.3909L23.3122 59.3523L23.1362 59.3136L22.7843 59.2323L22.6093 59.1895L22.4343 59.1458L22.2603 59.1011L22.0863 59.0553L21.9123 59.0085L21.7393 58.9607L21.5663 58.9119L21.3943 58.8621L21.2222 58.8112L20.8801 58.7055L20.7101 58.6516L20.3699 58.5397L20.2009 58.4818L20.0328 58.4238L19.6965 58.3038L19.3623 58.1797L19.03 58.0516L18.6997 57.9194L18.3714 57.7831L18.045 57.6428L17.8828 57.5706L17.7216 57.4984L17.5594 57.4241L17.3992 57.3499L17.2389 57.2746L17.0787 57.1973L16.9194 57.1201L16.7612 57.0418L16.6029 56.9624L16.4446 56.8821L16.2883 56.8007L16.131 56.7184L15.9757 56.635L15.8194 56.5506L15.6651 56.4651L15.3564 56.2923L15.203 56.2038L15.0506 56.1153L14.8983 56.0258L14.7469 55.9343L14.5965 55.8428L14.4461 55.7502L14.2957 55.6567L14.1472 55.5621L13.9978 55.4675L13.8503 55.3709L13.7029 55.2733L13.5564 55.1756L13.4099 55.077L13.2644 54.9773L13.1189 54.8767L12.9754 54.775L12.8309 54.6723L12.6884 54.5695L12.5458 54.4648L12.4043 54.3601L12.2627 54.2543L12.1221 54.1475L11.8429 53.9319L11.7043 53.8221L11.5667 53.7123L11.4291 53.6014L11.2924 53.4895L11.0211 53.2638L10.8864 53.1499L10.7527 53.034L10.4873 52.8021L10.2239 52.5662L10.0931 52.4472L9.96335 52.3272L9.70579 52.0851L9.45118 51.8401L9.32535 51.716L9.19952 51.5909L9.07467 51.4658L8.95081 51.3397L8.82793 51.2136L8.70504 51.0855L8.58315 50.9573L8.46223 50.8282L8.34131 50.698L8.22138 50.5678L7.98447 50.3045L7.7505 50.038L7.6345 49.9038L7.51948 49.7685L7.29142 49.496L7.06728 49.2214L6.95521 49.0831L6.84511 48.9438L6.62687 48.6631L6.51874 48.5217L6.41158 48.3794L6.30541 48.237L6.19924 48.0936L5.99084 47.8048L5.88762 47.6594L5.78538 47.5129L5.68413 47.3665L5.58287 47.219L5.48358 47.0716L5.38429 46.9221L5.28599 46.7736L5.18867 46.6231L5.09233 46.4726L4.99697 46.3211L4.9026 46.1695L4.80823 46.017L4.71484 45.8644L4.62341 45.7099L4.53199 45.5563L4.44155 45.4007L4.35209 45.2451L4.26362 45.0895L4.17514 44.9329L4.08863 44.7753L4.00311 44.6177L3.91758 44.459L3.75046 44.1397L3.66789 43.98L3.58629 43.8183L3.50568 43.6577L3.42606 43.495L3.34741 43.3333L3.26975 43.1695L3.19307 43.0058L3.11738 42.8421L3.04267 42.6773L2.96795 42.5116L2.89521 42.3458L2.82344 42.18L2.75168 42.0122L2.68188 41.8455L2.61209 41.6777L2.47643 41.34L2.3447 41.0004L2.2169 40.6587L2.09304 40.315L1.9731 39.9692L1.8571 39.6214L1.80107 39.4475L1.74504 39.2726L1.6369 38.9207L1.5848 38.7448L1.48256 38.3909L1.43341 38.2129L1.38524 38.035L1.33805 37.856L1.29185 37.677L1.24663 37.497L1.20239 37.317L1.15914 37.137L1.11687 36.956L1.07558 36.7749L0.996934 36.4109L0.959578 36.2288L0.922222 36.0458L0.886832 35.8627L0.852425 35.6787L0.819002 35.4946L0.786561 35.3105L0.755103 35.1255L0.724629 34.9404L0.695137 34.7543L0.640086 34.3821L0.614527 34.196L0.589951 34.0088L0.566357 33.8207L0.543747 33.6326L0.52212 33.4444L0.482798 33.0672L0.465103 32.878L0.448391 32.6888L0.432662 32.4987L0.417916 32.3085L0.404154 32.1173L0.392357 31.9261L0.37073 31.5438L0.361883 31.3516L0.34812 30.9671L0.338289 30.5807L0.33534 30.3875L0.333374 30L0.33534 29.6126L0.338289 29.4194L0.34812 29.0329L0.361883 28.6485L0.37073 28.4563L0.392357 28.0739L0.404154 27.8827L0.417916 27.6916L0.432662 27.5014L0.448391 27.3112L0.465103 27.1221L0.482798 26.9329L0.52212 26.5556L0.543747 26.3675L0.566357 26.1793L0.589951 25.9912L0.614527 25.8041L0.640086 25.618L0.695137 25.2458L0.724629 25.0597L0.755103 24.8746L0.786561 24.6895L0.819002 24.5054L0.852425 24.3214L0.886832 24.1373L0.922222 23.9543L0.959578 23.7712L0.996934 23.5892L1.07558 23.2251L1.11687 23.0441L1.15914 22.8631L1.20239 22.6831L1.24663 22.5031L1.29185 22.3231L1.33805 22.1441L1.38524 21.9651L1.43341 21.7871L1.48256 21.6092L1.5848 21.2553L1.6369 21.0793L1.74504 20.7275L1.80107 20.5526L1.8571 20.3787L1.9731 20.0309L2.09304 19.6851L2.2169 19.3414L2.3447 18.9997L2.47643 18.66L2.61209 18.3224L2.68188 18.1546L2.75168 17.9878L2.82344 17.82L2.89521 17.6543L2.96795 17.4885L3.04267 17.3227L3.11738 17.158L3.19307 16.9943L3.26975 16.8305L3.34741 16.6668L3.42606 16.5051L3.50568 16.3424L3.58629 16.1817L3.66789 16.02L3.75046 15.8604L3.91758 15.541L4.00311 15.3824L4.08863 15.2248L4.17514 15.0671L4.26362 14.9105L4.35209 14.7549L4.44155 14.5993L4.53199 14.4437L4.62341 14.2902L4.71484 14.1356L4.80823 13.9831L4.9026 13.8305L4.99697 13.679L5.09233 13.5275L5.18867 13.377L5.28599 13.2265L5.38429 13.078L5.48358 12.9285L5.58287 12.781L5.68413 12.6336L5.78538 12.4871L5.88762 12.3407L5.99084 12.1953L6.19924 11.9065L6.30541 11.7631L6.41158 11.6207L6.51874 11.4783L6.62687 11.337L6.84511 11.0563L6.95521 10.917L7.06728 10.7787L7.29142 10.5041L7.51948 10.2315L7.6345 10.0963L7.7505 9.96204L7.98447 9.6956L8.22138 9.43221L8.34131 9.30204L8.46223 9.17187L8.58315 9.04272L8.70504 8.91458L8.95081 8.66035L9.07467 8.53425L9.19952 8.40916L9.32535 8.28408L9.45118 8.16001L9.70579 7.91492L9.96335 7.67289L10.0931 7.55289L10.2239 7.43391L10.4873 7.19797L10.7527 6.96611L10.8864 6.85018L11.0211 6.73628L11.2924 6.51051L11.4291 6.39865L11.5667 6.2878L11.7043 6.17797L11.8429 6.06814L12.1221 5.85255L12.2627 5.74577L12.4043 5.64001L12.5458 5.53526L12.6884 5.43051L12.8309 5.3278L12.9754 5.22509L13.1189 5.12339L13.2644 5.02272L13.4099 4.92306L13.5564 4.82441L13.7029 4.72678L13.8503 4.62916L13.9978 4.53255L14.1472 4.43797L14.2957 4.34339L14.4461 4.24983L14.5965 4.15729L14.7469 4.06577L14.8983 3.97424L15.0506 3.88475L15.203 3.79627L15.3564 3.7078L15.6651 3.53492L15.8194 3.4495L15.9757 3.36509L16.131 3.2817L16.2883 3.19933L16.4446 3.11797L16.6029 3.03763L16.7612 2.95831L16.9194 2.88L17.0787 2.80271L17.2389 2.72543L17.3992 2.65017L17.5594 2.57593L17.7216 2.5017L17.8828 2.42949L18.045 2.35729L18.3714 2.21695L18.6997 2.08068L19.03 1.94848L19.3623 1.82034L19.6965 1.69627L20.0328 1.57627L20.2009 1.51831L20.3699 1.46034L20.7101 1.34848L20.8801 1.29458L21.2222 1.18881L21.3943 1.13797L21.5663 1.08814L21.7393 1.03932L21.9123 0.991526L22.0863 0.944747L22.2603 0.898984L22.4343 0.854238L22.6093 0.810509L22.7843 0.767797L23.1362 0.686441L23.3122 0.647797L23.4892 0.609153L23.6661 0.572543L23.844 0.53695L24.022 0.502373L24.1999 0.468814L24.3788 0.436272L24.5577 0.404746L24.7376 0.374238L25.0974 0.317288L25.2773 0.290848L25.4582 0.265424L25.6401 0.241017L25.8219 0.217627L26.0038 0.195254L26.3685 0.154576L26.5514 0.136271L26.7342 0.118983L26.918 0.102712L27.1019 0.0874577L27.2867 0.0732204L27.4715 0.061017L27.8411 0.0386441L28.0269 0.0294916L28.3985 0.0152542L28.7721 0.00508475L28.9589 0.00203387L29.3334 0L29.7079 0.00203387ZM28.9834 2.03593L28.8094 2.03899L28.6345 2.04305L28.4605 2.04814L28.2874 2.05424L28.1134 2.06136L27.7674 2.07966L27.5954 2.09085L27.2513 2.11526L27.0802 2.12949L26.9082 2.14475L26.7372 2.16102L26.5671 2.17831L26.397 2.19661L26.227 2.21593L25.8878 2.25865L25.7187 2.28102L25.3815 2.32983L25.2144 2.35627L24.8792 2.41119L24.7121 2.44068L24.3798 2.5017L24.2137 2.53424L24.0485 2.5678L23.8834 2.60238L23.7182 2.63797L23.554 2.67356L23.3899 2.71119L23.2267 2.74983L23.0635 2.78949L22.9003 2.83017L22.7381 2.87187L22.5759 2.91458L22.4147 2.95831L22.2525 3.00204L22.0922 3.0478L21.932 3.09458L21.7718 3.14238L21.6115 3.19119L21.4523 3.24L21.294 3.29085L20.9775 3.39458L20.8202 3.44848L20.5056 3.55831L20.3493 3.61424L20.0387 3.73017L19.8833 3.78916L19.5746 3.91119L19.4213 3.97322L19.2679 4.03627L19.1156 4.10034L18.9632 4.16543L18.8118 4.23051L18.6604 4.29763L18.509 4.36577L18.3586 4.4339L18.2092 4.50306L17.9103 4.64543L17.7619 4.71763L17.6144 4.79085L17.3195 4.93933L17.1731 5.0156L17.0276 5.09187L16.8821 5.17017L16.7376 5.24848L16.5931 5.3278L16.4485 5.40814L16.306 5.4895L16.1625 5.57085L16.0209 5.65424L15.8784 5.73763L15.7378 5.82204L15.5972 5.90848L15.4566 5.9939L15.3171 6.08136L15.1775 6.16984L15.0398 6.25831L14.9012 6.3478L14.7636 6.43831L14.6269 6.52984L14.3556 6.71492L14.22 6.80848L14.0853 6.90407L13.9516 6.99865L13.8179 7.09526L13.6852 7.19289L13.5535 7.29052L13.4217 7.38916L13.29 7.48882L13.1602 7.58848L12.9007 7.79187L12.7719 7.89458L12.5163 8.10204L12.3895 8.20679L12.2637 8.31255L12.1379 8.41933L12.013 8.52713L11.8891 8.63492L11.7653 8.74374L11.6424 8.85255L11.3986 9.07425L11.2777 9.18611L11.1568 9.29899L11.0368 9.41187L10.9179 9.52577L10.7999 9.64069L10.682 9.75662L10.565 9.87255L10.448 9.9895L10.333 10.1065L10.1029 10.3444L9.98989 10.4634L9.87684 10.5844L9.76477 10.7054L9.65271 10.8275L9.54162 10.9495L9.43152 11.0726L9.3224 11.1966L9.21328 11.3217L9.10515 11.4468L8.89084 11.699L8.78565 11.8261L8.68047 11.9542L8.57626 12.0824L8.47206 12.2115L8.36884 12.3417L8.2666 12.4719L8.16535 12.6031L7.96481 12.8675L7.86552 13.0007L7.66891 13.2692L7.57257 13.4034L7.47623 13.5397L7.38087 13.6759L7.2865 13.8122L7.19213 13.9495L7.09874 14.0878L7.00731 14.2261L6.91491 14.3654L6.82447 14.5058L6.64555 14.7865L6.55708 14.9278L6.46958 15.0702L6.38308 15.2136L6.29755 15.3559L6.21202 15.5004L6.12748 15.6448L6.04491 15.7902L5.96135 15.9356L5.87975 16.081L5.79914 16.2285L5.71853 16.3749L5.63989 16.5234L5.56124 16.6709L5.48358 16.8204L5.4069 16.9698L5.33121 17.1193L5.25552 17.2698L5.18179 17.4204L5.10806 17.5719L4.96453 17.877L4.89375 18.0295L4.82395 18.1831L4.68633 18.4922L4.61948 18.6468L4.55362 18.8024L4.48775 18.959L4.42287 19.1156L4.35995 19.2722L4.29704 19.4298L4.23511 19.5875L4.17416 19.7461L4.11419 19.9048L3.99623 20.2241L3.93921 20.3848L3.82714 20.7061L3.77307 20.8678L3.6669 21.1932L3.6148 21.356L3.51453 21.6834L3.46538 21.8471L3.41819 22.0119L3.371 22.1776L3.3248 22.3434L3.27958 22.5092L3.23534 22.6749L3.19307 22.8427L3.1508 23.0095L3.10951 23.1773L3.06921 23.3451L3.02989 23.5139L2.99155 23.6827L2.95419 23.8515L2.91782 24.0214L2.88341 24.1912L2.849 24.3621L2.81558 24.5329L2.78314 24.7038L2.75168 24.8756L2.6927 25.2193L2.66419 25.3922L2.61111 25.739L2.58555 25.9119L2.53836 26.2607L2.51673 26.4356L2.47544 26.7865L2.45677 26.9624L2.43907 27.1383L2.42236 27.3143L2.40663 27.4912L2.39188 27.6692L2.37812 27.8461L2.35453 28.2021L2.34372 28.38L2.32602 28.738L2.31914 28.918L2.31324 29.097L2.30833 29.277L2.30439 29.458L2.30144 29.638L2.29948 30L2.30144 30.3621L2.30439 30.5421L2.30833 30.7231L2.31324 30.9031L2.31914 31.0821L2.32602 31.2621L2.34372 31.62L2.35453 31.798L2.37812 32.1539L2.39188 32.3309L2.40663 32.5088L2.42236 32.6858L2.43907 32.8617L2.45677 33.0377L2.47544 33.2136L2.51673 33.5644L2.53836 33.7394L2.58555 34.0882L2.61111 34.261L2.66419 34.6078L2.6927 34.7807L2.75168 35.1244L2.78314 35.2963L2.81558 35.4672L2.849 35.638L2.88341 35.8088L2.91782 35.9787L2.95419 36.1485L2.99155 36.3173L3.02989 36.4861L3.06921 36.6549L3.10951 36.8227L3.1508 36.9905L3.19307 37.1573L3.23534 37.3251L3.27958 37.4909L3.3248 37.6566L3.371 37.8224L3.41819 37.9882L3.46538 38.1529L3.51453 38.3166L3.6148 38.6441L3.719 38.9695L3.77307 39.1322L3.82714 39.2939L3.93921 39.6153L3.99623 39.776L4.11419 40.0953L4.17416 40.2539L4.23511 40.4126L4.29704 40.5702L4.35995 40.7278L4.42287 40.8844L4.48775 41.0411L4.55362 41.1977L4.61948 41.3533L4.68633 41.5078L4.82395 41.817L4.89375 41.9705L4.96453 42.1231L5.10806 42.4282L5.18179 42.5797L5.25552 42.7302L5.33121 42.8807L5.4069 43.0302L5.48358 43.1797L5.56124 43.3292L5.63989 43.4767L5.71853 43.6251L5.79914 43.7716L5.87975 43.919L5.96135 44.0644L6.04491 44.2099L6.12748 44.3553L6.21202 44.4997L6.29755 44.6441L6.38308 44.7865L6.46958 44.9299L6.55708 45.0722L6.64555 45.2136L6.82447 45.4943L6.91491 45.6346L7.00731 45.7739L7.09874 45.9122L7.19213 46.0506L7.2865 46.1878L7.38087 46.3241L7.47623 46.4604L7.57257 46.5967L7.66891 46.7309L7.86552 46.9994L7.96481 47.1326L8.16535 47.397L8.2666 47.5282L8.36884 47.6583L8.47206 47.7885L8.57626 47.9177L8.68047 48.0458L8.78565 48.1739L8.89084 48.3011L9.10515 48.5533L9.21328 48.6784L9.3224 48.8034L9.43152 48.9275L9.54162 49.0506L9.65271 49.1726L9.76477 49.2946L9.87684 49.4156L9.98989 49.5367L10.1029 49.6556L10.333 49.8936L10.448 50.0106L10.565 50.1275L10.682 50.2434L10.7999 50.3594L10.9179 50.4743L11.0368 50.5882L11.1568 50.7011L11.2777 50.8139L11.3986 50.9258L11.5205 51.0367L11.6424 51.1465L11.7653 51.2563L11.8891 51.3651L12.013 51.4729L12.1379 51.5807L12.2637 51.6875L12.3895 51.7933L12.5163 51.898L12.7719 52.1055L12.9007 52.2082L13.1602 52.4116L13.29 52.5112L13.4217 52.6109L13.5535 52.7095L13.6852 52.8072L13.8179 52.9048L13.9516 53.0014L14.0853 53.096L14.22 53.1916L14.3556 53.2851L14.6269 53.4702L14.7636 53.5617L14.9012 53.6523L15.0398 53.7417L15.1775 53.8302L15.3171 53.9187L15.4566 54.0062L15.5972 54.0916L15.7378 54.178L15.8784 54.2624L16.0209 54.3458L16.1625 54.4292L16.306 54.5106L16.4485 54.5919L16.5931 54.6723L16.7376 54.7516L16.8821 54.8299L17.0276 54.9082L17.1731 54.9845L17.3195 55.0607L17.6144 55.2092L17.7619 55.2824L17.9103 55.3546L18.2092 55.497L18.3586 55.5662L18.509 55.6343L18.6604 55.7024L18.8118 55.7695L18.9632 55.8346L19.1156 55.8997L19.2679 55.9638L19.4213 56.0268L19.5746 56.0889L19.8833 56.2109L20.0387 56.2699L20.3493 56.3858L20.5056 56.4417L20.8202 56.5516L20.9775 56.6055L21.294 56.7092L21.4523 56.7601L21.6115 56.8089L21.7718 56.8577L21.932 56.9055L22.0922 56.9523L22.2525 56.998L22.4147 57.0418L22.5759 57.0855L22.7381 57.1282L22.9003 57.1699L23.0635 57.2106L23.2267 57.2502L23.3899 57.2889L23.554 57.3265L23.7182 57.3621L23.8834 57.3977L24.0485 57.4323L24.2137 57.4658L24.3798 57.4984L24.7121 57.5594L24.8792 57.5889L25.2144 57.6438L25.3815 57.6702L25.7187 57.719L25.8878 57.7414L26.227 57.7841L26.397 57.8034L26.5671 57.8218L26.7372 57.839L26.9082 57.8553L27.0802 57.8706L27.2513 57.8848L27.5954 57.9092L27.7674 57.9204L28.1134 57.9387L28.2874 57.9458L28.4605 57.9519L28.6345 57.957L28.8094 57.9611L28.9834 57.9641L29.3334 57.9662L29.6834 57.9641L29.8574 57.9611L30.0324 57.957L30.2064 57.9519L30.3794 57.9458L30.5534 57.9387L30.8994 57.9204L31.0714 57.9092L31.4155 57.8848L31.5866 57.8706L31.7586 57.8553L31.9296 57.839L32.0997 57.8218L32.2698 57.8034L32.4398 57.7841L32.779 57.7414L32.9481 57.719L33.2853 57.6702L33.4524 57.6438L33.7876 57.5889L33.9547 57.5594L34.287 57.4984L34.4531 57.4658L34.6183 57.4323L34.7834 57.3977L34.9486 57.3621L35.1128 57.3265L35.2769 57.2889L35.4401 57.2502L35.6033 57.2106L35.7665 57.1699L35.9287 57.1282L36.0909 57.0855L36.2521 57.0418L36.4143 56.998L36.5746 56.9523L36.7348 56.9055L36.895 56.8577L37.0553 56.8089L37.2145 56.7601L37.3728 56.7092L37.6893 56.6055L37.8466 56.5516L38.1612 56.4417L38.3175 56.3858L38.6282 56.2699L38.7835 56.2109L39.0922 56.0889L39.2455 56.0268L39.3989 55.9638L39.5512 55.8997L39.7036 55.8346L39.855 55.7695L40.0064 55.7024L40.1578 55.6343L40.3082 55.5662L40.4576 55.497L40.7565 55.3546L40.9049 55.2824L41.0524 55.2092L41.3473 55.0607L41.4938 54.9845L41.6392 54.9082L41.7847 54.8299L41.9292 54.7516L42.0738 54.6723L42.2183 54.5919L42.3608 54.5106L42.5043 54.4292L42.6459 54.3458L42.7884 54.2624L42.929 54.178L43.0696 54.0916L43.2102 54.0062L43.3498 53.9187L43.4894 53.8302L43.627 53.7417L43.7656 53.6523L43.9032 53.5617L44.0399 53.4702L44.3112 53.2851L44.4468 53.1916L44.5815 53.096L44.7152 53.0014L44.8489 52.9048L44.9816 52.8072L45.1134 52.7095L45.2451 52.6109L45.3768 52.5112L45.5066 52.4116L45.7661 52.2082L45.8949 52.1055L46.1505 51.898L46.2773 51.7933L46.4031 51.6875L46.529 51.5807L46.6538 51.4729L46.7777 51.3651L46.9015 51.2563L47.0244 51.1465L47.1463 51.0367L47.2682 50.9258L47.3891 50.8139L47.51 50.7011L47.63 50.5882L47.7489 50.4743L47.8669 50.3594L47.9848 50.2434L48.1018 50.1275L48.2188 50.0106L48.3338 49.8936L48.5639 49.6556L48.6769 49.5367L48.79 49.4156L48.902 49.2946L49.0141 49.1726L49.1252 49.0506L49.2353 48.9275L49.3444 48.8034L49.4535 48.6784L49.5617 48.5533L49.6688 48.4272L49.775 48.3011L49.8812 48.1739L49.9863 48.0458L50.0905 47.9177L50.1947 47.7885L50.298 47.6583L50.4002 47.5282L50.5015 47.397L50.702 47.1326L50.8013 46.9994L50.9979 46.7309L51.0942 46.5967L51.1906 46.4604L51.2859 46.3241L51.3803 46.1878L51.4747 46.0506L51.5681 45.9122L51.6595 45.7739L51.7519 45.6346L51.8423 45.4943L52.0213 45.2136L52.1097 45.0722L52.1972 44.9299L52.2837 44.7865L52.3693 44.6441L52.4548 44.4997L52.5393 44.3553L52.6219 44.2099L52.7055 44.0644L52.7871 43.919L52.8677 43.7716L52.9483 43.6251L53.0269 43.4767L53.1056 43.3292L53.1832 43.1797L53.2599 43.0302L53.3356 42.8807L53.4113 42.7302L53.485 42.5797L53.5588 42.4282L53.7023 42.1231L53.7731 41.9705L53.8429 41.817L53.9805 41.5078L54.0473 41.3533L54.1132 41.1977L54.1791 41.0411L54.2439 40.8844L54.3069 40.7278L54.3698 40.5702L54.4317 40.4126L54.4926 40.2539L54.5526 40.0953L54.6706 39.776L54.7276 39.6153L54.8397 39.2939L54.8937 39.1322L54.9999 38.8068L55.052 38.6441L55.1523 38.3166L55.2014 38.1529L55.2486 37.9882L55.2958 37.8224L55.342 37.6566L55.3872 37.4909L55.4315 37.3251L55.4737 37.1573L55.516 36.9905L55.5573 36.8227L55.5976 36.6549L55.6369 36.4861L55.6753 36.3173L55.7126 36.1485L55.749 35.9787L55.7834 35.8088L55.8178 35.638L55.8512 35.4672L55.8837 35.2963L55.9151 35.1244L55.9741 34.7807L56.0026 34.6078L56.0557 34.261L56.0813 34.0882L56.1285 33.7394L56.1501 33.5644L56.1914 33.2136L56.21 33.0377L56.2277 32.8617L56.2445 32.6858L56.2602 32.5088L56.2749 32.3309L56.2887 32.1539L56.3123 31.798L56.3231 31.62L56.3408 31.2621L56.3477 31.0821L56.3536 30.9031L56.3585 30.7231L56.3624 30.5421L56.3654 30.3621L56.3673 30L56.3654 29.638L56.3624 29.458L56.3585 29.277L56.3536 29.097L56.3477 28.918L56.3408 28.738L56.3231 28.38L56.3123 28.2021L56.2887 27.8461L56.2749 27.6692L56.2602 27.4912L56.2445 27.3143L56.2277 27.1383L56.21 26.9624L56.1914 26.7865L56.1501 26.4356L56.1285 26.2607L56.0813 25.9119L56.0557 25.739L56.0026 25.3922L55.9741 25.2193L55.9151 24.8756L55.8837 24.7038L55.8512 24.5329L55.8178 24.3621L55.7834 24.1912L55.749 24.0214L55.7126 23.8515L55.6753 23.6827L55.6369 23.5139L55.5976 23.3451L55.5573 23.1773L55.516 23.0095L55.4737 22.8427L55.4315 22.6749L55.3872 22.5092L55.342 22.3434L55.2958 22.1776L55.2486 22.0119L55.2014 21.8471L55.1523 21.6834L55.052 21.356L54.9999 21.1932L54.8937 20.8678L54.8397 20.7061L54.7276 20.3848L54.6706 20.2241L54.5526 19.9048L54.4926 19.7461L54.4317 19.5875L54.3698 19.4298L54.3069 19.2722L54.2439 19.1156L54.1791 18.959L54.1132 18.8024L54.0473 18.6468L53.9805 18.4922L53.8429 18.1831L53.7731 18.0295L53.7023 17.877L53.5588 17.5719L53.485 17.4204L53.4113 17.2698L53.3356 17.1193L53.2599 16.9698L53.1832 16.8204L53.1056 16.6709L53.0269 16.5234L52.9483 16.3749L52.8677 16.2285L52.7871 16.081L52.7055 15.9356L52.6219 15.7902L52.5393 15.6448L52.4548 15.5004L52.3693 15.3559L52.2837 15.2136L52.1972 15.0702L52.1097 14.9278L52.0213 14.7865L51.8423 14.5058L51.7519 14.3654L51.6595 14.2261L51.5681 14.0878L51.4747 13.9495L51.3803 13.8122L51.2859 13.6759L51.1906 13.5397L51.0942 13.4034L50.9979 13.2692L50.8013 13.0007L50.702 12.8675L50.5015 12.6031L50.4002 12.4719L50.298 12.3417L50.1947 12.2115L50.0905 12.0824L49.9863 11.9542L49.8812 11.8261L49.775 11.699L49.6688 11.5729L49.5617 11.4468L49.4535 11.3217L49.3444 11.1966L49.2353 11.0726L49.1252 10.9495L49.0141 10.8275L48.902 10.7054L48.79 10.5844L48.6769 10.4634L48.5639 10.3444L48.3338 10.1065L48.2188 9.9895L48.1018 9.87255L47.9848 9.75662L47.8669 9.64069L47.7489 9.52577L47.63 9.41187L47.51 9.29899L47.3891 9.18611L47.2682 9.07425L47.0244 8.85255L46.9015 8.74374L46.7777 8.63492L46.6538 8.52713L46.529 8.41933L46.4031 8.31255L46.2773 8.20679L46.1505 8.10204L45.8949 7.89458L45.7661 7.79187L45.5066 7.58848L45.3768 7.48882L45.2451 7.38916L45.1134 7.29052L44.9816 7.19289L44.8489 7.09526L44.7152 6.99865L44.5815 6.90407L44.4468 6.80848L44.3112 6.71492L44.0399 6.52984L43.9032 6.43831L43.7656 6.3478L43.627 6.25831L43.4894 6.16984L43.3498 6.08136L43.2102 5.9939L43.0696 5.90848L42.929 5.82204L42.7884 5.73763L42.6459 5.65424L42.5043 5.57085L42.3608 5.4895L42.2183 5.40814L42.0738 5.3278L41.9292 5.24848L41.7847 5.17017L41.6392 5.09187L41.4938 5.0156L41.3473 4.93933L41.0524 4.79085L40.9049 4.71763L40.7565 4.64543L40.4576 4.50306L40.3082 4.4339L40.1578 4.36577L40.0064 4.29763L39.855 4.23051L39.7036 4.16543L39.5512 4.10034L39.3989 4.03627L39.2455 3.97322L39.0922 3.91119L38.7835 3.78916L38.6282 3.73017L38.3175 3.61424L38.1612 3.55831L38.0039 3.50238L37.6893 3.39458L37.3728 3.29085L37.2145 3.24L37.0553 3.19119L36.895 3.14238L36.7348 3.09458L36.5746 3.0478L36.4143 3.00204L36.2521 2.95831L36.0909 2.91458L35.9287 2.87187L35.7665 2.83017L35.6033 2.78949L35.4401 2.74983L35.2769 2.71119L35.1128 2.67356L34.9486 2.63797L34.7834 2.60238L34.6183 2.5678L34.4531 2.53424L34.287 2.5017L33.9547 2.44068L33.7876 2.41119L33.4524 2.35627L33.2853 2.32983L32.9481 2.28102L32.779 2.25865L32.4398 2.21593L32.2698 2.19661L32.0997 2.17831L31.9296 2.16102L31.7586 2.14475L31.5866 2.12949L31.4155 2.11526L31.0714 2.09085L30.8994 2.07966L30.5534 2.06136L30.3794 2.05424L30.2064 2.04814L30.0324 2.04305L29.8574 2.03899L29.6834 2.03593L29.3334 2.0339L28.9834 2.03593Z" fill="#666D89"/>
<path fill-rule="evenodd" clip-rule="evenodd" d="M44.6851 25.9298C44.4174 25.105 43.7301 24.5012 42.9036 24.3701L34.8551 23.0921L31.3558 15.3357C30.9884 14.5213 30.1996 14 29.3335 14C28.4674 14 27.6795 14.5213 27.3112 15.3357L23.8129 23.0921L15.7634 24.3701C14.936 24.5012 14.2487 25.105 13.9828 25.9298C13.716 26.7556 13.9171 27.6661 14.5019 28.2885L20.4005 34.5781L19.0327 43.3017C18.8935 44.1791 19.2502 45.0617 19.9491 45.5757C20.3329 45.8565 20.7843 46 21.2357 46C21.6069 46 21.9781 45.903 22.3165 45.711L29.3335 41.6769L36.3515 45.711C36.6889 45.903 37.061 46 37.4313 46C37.8827 46 38.3332 45.8565 38.7189 45.5757C39.4168 45.0617 39.7735 44.1791 39.6353 43.3017L38.2665 34.5781L44.166 28.2885C44.7499 27.6661 44.95 26.7556 44.6851 25.9298ZM36.6686 32.9554C36.1736 33.4828 35.9494 34.224 36.0634 34.9517L37.4313 43.6764L30.4142 39.6434C30.0769 39.4493 29.7057 39.3533 29.3335 39.3533C28.9623 39.3533 28.5901 39.4493 28.2537 39.6434L21.2357 43.6764L22.6045 34.9517C22.7186 34.224 22.4943 33.4828 21.9994 32.9554L16.1008 26.6679L24.1493 25.3868C24.8849 25.2702 25.5181 24.7799 25.8351 24.079L29.3335 16.3236L32.8328 24.079C33.1489 24.7799 33.7811 25.2702 34.5168 25.3868L42.5662 26.6679L36.6686 32.9554Z" fill="#666D89"/>
</g>
<defs>
<clipPath id="clip0_0:43">
<rect width="58" height="60" fill="white" transform="translate(0.333374)"/>
</clipPath>
</defs>
</svg>
